<svg width="1200" height="1200" viewBox="0 0 1200 1200" xmlns="http://www.w3.org/2000/svg">
<rect x="0" y="0" width="1200" height="1200" opacity="1" fill="#FFFFFF" stroke="none"/>
<circle cx="691" cy="148" r="3" opacity="1" fill="#000000" stroke="none" stroke-width="1"/>
<polyline fill="none" opacity="1" stroke="#FF0000" stroke-width="10" points="529,762 619,762 "/>
<polyline fill="none" opacity="1" stroke="#0000FF" stroke-width="10" points="529,762 529,672 "/>
<circle cx="637" cy="446" r="5" opacity="1" fill="#FF0000" stroke="none" stroke-width="1"/>
<polyline fill="none" opacity="1" stroke="#FF0000" stroke-width="5" points="529,762 637,446 "/>
<polyline fill="none" opacity="1" stroke="#FF0000" stroke-width="7" points="637,446 657,439 676,434 694,430 712,427 729,425 746,425 761,426 776,429 789,432 802,437 813,444 824,451 833,460 841,470 848,481 853,494 858,507 860,521 862,536 862,553 861,570 859,587 856,606 851,625 844,644 837,665 828,685 819,706 808,727 796,748 782,769 768,790 753,811 737,832 720,853 703,873 685,892 666,912 647,930 627,948 606,966 586,982 565,998 544,1012 523,1026 502,1038 481,1050 461,1060 440,1070 420,1078 401,1084 382,1090 363,1094 345,1097 328,1098 312,1099 296,1097 282,1095 268,1091 255,1086 244,1080 234,1072 224,1063 216,1053 210,1042 204,1030 200,1017 197,1002 195,987 195,971 196,954 198,936 202,918 207,899 213,879 220,859 229,839 239,818 250,797 262,776 275,755 289,733 304,712 320,692 337,671 354,651 373,631 391,612 411,593 431,575 451,558 471,542 492,526 513,511 534,498 555,485 576,474 596,463 617,454 "/>
<circle cx="682" cy="257" r="5" opacity="1" fill="#FF0000" stroke="none" stroke-width="1"/>
<polyline fill="none" opacity="1" stroke="#FF0000" stroke-width="5" points="637,446 682,257 "/>
<polyline fill="none" opacity="1" stroke="#FF0000" stroke-width="7" points="682,257 694,254 705,252 717,251 728,251 738,252 749,253 758,255 768,258 777,262 785,266 792,271 799,277 806,283 812,290 817,298 821,306 825,315 828,325 830,334 831,345 832,355 831,366 831,377 829,389 826,401 823,413 819,425 815,437 809,449 803,462 796,474 789,486 781,498 773,509 764,521 754,532 744,543 734,553 723,563 712,573 700,582 689,590 677,598 665,606 653,612 640,618 628,624 616,628 604,632 592,635 580,638 568,640 557,641 546,641 535,640 525,639 515,637 506,634 497,630 489,626 481,621 474,615 468,609 462,602 457,594 453,586 449,577 446,567 444,558 443,547 442,537 442,526 443,515 445,503 447,491 451,479 455,467 459,455 465,443 471,430 477,418 485,406 493,394 501,383 510,371 520,360 530,349 540,339 551,329 562,319 573,310 585,302 597,294 609,286 621,280 633,274 646,268 658,264 670,260 "/>
<circle cx="691" cy="148" r="5" opacity="1" fill="#FF0000" stroke="none" stroke-width="1"/>
<polyline fill="none" opacity="1" stroke="#FF0000" stroke-width="5" points="682,257 691,148 "/>
<polyline fill="none" opacity="1" stroke="#FF0000" stroke-width="7" points="691,148 698,148 705,148 711,148 718,149 724,151 730,153 736,155 742,157 748,160 753,164 758,167 763,171 767,176 771,181 775,186 778,191 781,196 784,202 786,208 788,214 789,221 790,227 791,234 791,241 790,248 790,254 788,261 787,268 785,275 782,281 779,288 776,294 773,301 769,307 764,313 760,319 755,324 750,329 744,334 738,339 732,343 726,347 720,351 713,354 707,357 700,359 693,361 687,363 680,364 673,365 666,365 659,365 653,365 646,364 640,362 634,361 628,358 622,356 616,353 611,349 606,346 601,342 597,337 593,332 589,327 586,322 583,317 580,311 578,305 576,299 575,292 574,286 573,279 573,272 574,266 575,259 576,252 577,245 579,238 582,232 585,225 588,219 591,212 595,206 600,200 604,194 609,189 614,184 620,179 626,174 632,170 638,166 644,162 651,159 657,156 664,154 671,152 677,150 684,149 "/>
<polyline fill="none" opacity="1" stroke="#000000" stroke-width="10" points="691,148 709,144 726,141 744,139 761,137 778,136 795,135 812,135 828,136 844,137 860,139 875,141 890,144 904,148 919,152 932,157 945,162 958,168 971,175 982,182 994,189 1004,197 1015,206 1024,215 1033,224 1042,234 1050,244 1057,254 1064,265 1070,276 1076,288 1081,300 1085,312 1089,324 1092,336 1094,349 1096,362 1098,375 1098,388 1099,402 1098,415 1097,428 1096,442 1094,455 1091,469 1088,482 1084,496 1080,509 1075,522 1070,535 1064,548 1058,561 1052,574 1045,587 1038,599 1030,611 1022,623 1014,635 1005,646 996,657 987,668 978,679 968,689 958,699 948,709 938,718 928,727 917,735 907,744 896,752 886,759 875,767 864,774 854,780 843,787 832,792 822,798 811,803 801,808 790,813 780,817 770,821 760,824 751,828 741,831 732,834 723,836 714,838 706,840 697,842 689,843 681,845 674,846 666,847 659,847 652,848 646,848 640,848 634,848 628,848 623,848 618,848 613,848 609,847 604,847 601,847 597,846 594,846 590,845 588,845 585,844 583,844 580,844 578,843 577,843 575,843 574,843 573,843 572,843 571,843 570,844 570,844 569,845 569,846 569,846 568,847 568,849 568,850 568,851 568,853 568,855 569,856 569,858 569,861 569,863 569,865 569,868 569,870 569,873 568,876 568,879 568,882 567,885 567,889 566,892 565,895 564,899 563,903 562,906 560,910 559,913 557,917 555,921 553,925 551,928 549,932 547,936 544,939 541,943 539,947 536,950 532,954 529,957 526,960 522,963 519,967 515,969 511,972 507,975 503,978 499,980 495,983 490,985 486,987 481,989 477,990 472,992 468,993 463,995 459,996 454,997 450,998 445,998 441,999 436,999 432,999 427,999 423,999 419,999 414,998 410,998 406,997 402,996 399,995 395,994 391,993 388,992 384,990 381,989 378,987 375,986 373,984 370,982 368,980 365,979 363,977 361,975 359,973 358,972 356,970 355,968 353,966 352,965 351,963 350,962 350,960 349,959 349,958 348,957 348,956 348,955 348,954 348,954 348,953 348,953 348,953 348,953 349,953 349,953 349,954 350,954 350,955 350,956 351,957 351,959 351,960 351,962 352,964 352,966 352,968 351,970 351,973 351,975 350,978 350,981 349,984 348,987 347,990 346,993 344,997 343,1000 341,1004 339,1007 337,1011 335,1014 332,1018 330,1021 327,1025 324,1028 320,1032 317,1035 313,1038 309,1042 305,1045 301,1047 297,1050 292,1053 287,1055 282,1057 277,1059 272,1061 267,1062 261,1063 256,1064 250,1065 244,1065 238,1065 232,1064 226,1064 220,1063 214,1061 208,1059 201,1057 195,1054 189,1051 183,1047 177,1043 171,1039 166,1034 160,1028 154,1023 149,1016 144,1010 139,1002 134,995 130,987 125,978 121,969 118,959 114,949 111,939 108,928 106,917 104,905 102,893 101,880 100,867 99,854 99,840 100,826 101,812 102,797 104,782 106,767 109,751 112,736 116,720 121,703 126,687 131,671 137,654 143,637 150,620 158,603 166,586 174,569 183,552 193,535 203,519 214,502 225,485 236,468 249,452 261,436 274,420 287,404 301,388 315,373 330,358 345,343 360,329 376,315 392,302 408,289 425,276 442,264 459,252 476,241 494,230 511,220 529,210 547,201 565,192 583,184 601,177 619,170 637,163 655,158 673,153 691,148 "/>
</svg>
