<svg width="1200" height="1200" viewBox="0 0 1200 1200" xmlns="http://www.w3.org/2000/svg">
<rect x="0" y="0" width="1200" height="1200" opacity="1" fill="#FFFFFF" stroke="none"/>
<circle cx="1099" cy="272" r="3" opacity="1" fill="#000000" stroke="none" stroke-width="1"/>
<polyline fill="none" opacity="1" stroke="#FF0000" stroke-width="10" points="474,572 599,572 "/>
<polyline fill="none" opacity="1" stroke="#0000FF" stroke-width="10" points="474,572 474,447 "/>
<circle cx="911" cy="472" r="5" opacity="1" fill="#FF0000" stroke="none" stroke-width="1"/>
<polyline fill="none" opacity="1" stroke="#FF0000" stroke-width="5" points="474,572 911,472 "/>
<polyline fill="none" opacity="1" stroke="#FF0000" stroke-width="7" points="911,472 910,472 908,473 903,474 898,475 890,477 881,479 870,481 857,484 843,487 828,491 811,495 793,499 773,503 753,508 731,513 708,518 685,524 660,529 635,535 609,541 583,547 556,553 529,559 502,566 474,572 447,578 419,584 392,591 365,597 339,603 313,609 288,614 264,620 240,625 217,631 195,636 175,640 155,645 137,649 120,653 105,656 91,659 79,662 68,665 58,667 51,669 45,670 40,671 38,672 37,672 38,672 40,671 45,670 51,669 58,667 68,665 79,662 91,659 105,656 120,653 137,649 155,645 175,640 195,636 217,631 240,625 264,620 288,614 313,609 339,603 365,597 392,591 419,584 447,578 474,572 502,566 529,559 556,553 583,547 609,541 635,535 660,529 685,524 708,518 731,513 753,508 773,503 793,499 811,495 828,491 843,487 857,484 870,481 881,479 890,477 898,475 903,474 908,473 910,472 "/>
<circle cx="1036" cy="172" r="5" opacity="1" fill="#FF0000" stroke="none" stroke-width="1"/>
<polyline fill="none" opacity="1" stroke="#FF0000" stroke-width="5" points="911,472 1036,172 "/>
<polyline fill="none" opacity="1" stroke="#FF0000" stroke-width="7" points="1036,172 1036,173 1035,175 1034,177 1032,182 1030,187 1027,193 1024,201 1021,209 1017,219 1012,229 1007,241 1002,253 997,267 991,281 985,296 978,311 971,327 964,344 957,362 950,379 942,397 935,416 927,434 919,453 911,472 903,491 896,509 888,528 880,546 873,565 865,582 858,600 851,616 844,633 838,648 832,663 826,677 820,690 815,703 810,714 806,725 802,735 798,743 795,751 792,757 790,762 789,766 787,769 787,771 786,772 787,771 787,769 789,766 790,762 792,757 795,751 798,743 802,735 806,725 810,714 815,703 820,690 826,677 832,663 838,648 844,633 851,616 858,600 865,582 873,565 880,546 888,528 896,509 903,491 911,472 919,453 927,434 935,416 942,397 950,379 957,362 964,344 971,327 978,311 985,296 991,281 997,267 1002,253 1007,241 1012,229 1017,219 1021,209 1024,201 1027,193 1030,187 1032,182 1034,177 1035,175 1036,173 "/>
<circle cx="1099" cy="272" r="5" opacity="1" fill="#FF0000" stroke="none" stroke-width="1"/>
<polyline fill="none" opacity="1" stroke="#FF0000" stroke-width="5" points="1036,172 1099,272 "/>
<polyline fill="none" opacity="1" stroke="#FF0000" stroke-width="7" points="1099,272 1098,272 1098,271 1097,270 1097,269 1096,267 1094,265 1093,263 1091,260 1089,257 1087,253 1084,249 1082,245 1079,241 1076,236 1073,231 1070,226 1066,220 1063,215 1059,209 1055,203 1052,197 1048,191 1044,185 1040,178 1036,172 1032,166 1028,160 1024,153 1021,147 1017,141 1013,135 1010,130 1006,124 1003,119 999,113 996,108 993,104 991,99 988,95 986,91 983,88 981,85 980,82 978,79 977,77 976,75 975,74 974,73 974,72 974,72 974,72 974,73 975,74 976,75 977,77 978,79 980,82 981,85 983,88 986,91 988,95 991,99 993,104 996,108 999,113 1003,119 1006,124 1010,130 1013,135 1017,141 1021,147 1024,153 1028,160 1032,166 1036,172 1040,178 1044,185 1048,191 1052,197 1055,203 1059,209 1063,215 1066,220 1070,226 1073,231 1076,236 1079,241 1082,245 1084,249 1087,253 1089,257 1091,260 1093,263 1094,265 1096,267 1097,269 1097,270 1098,271 1098,272 "/>
<polyline fill="none" opacity="1" stroke="#000000" stroke-width="10" points="1099,272 1099,272 1098,272 1098,272 1098,272 1097,272 1097,273 1096,273 1095,273 1094,273 1093,274 1092,274 1090,274 1089,275 1087,275 1086,276 1084,276 1082,277 1080,277 1078,278 1076,278 1074,279 1071,280 1069,280 1066,281 1063,282 1061,283 1058,284 1055,285 1052,285 1048,286 1045,287 1042,289 1038,290 1035,291 1031,292 1027,293 1023,294 1019,296 1015,297 1011,298 1007,300 1003,301 999,303 994,304 990,306 985,308 980,309 976,311 971,313 966,315 961,317 956,319 951,321 946,323 941,325 936,327 930,329 925,331 920,333 914,336 909,338 903,341 898,343 892,346 886,348 881,351 875,354 869,356 863,359 858,362 852,365 846,368 840,371 834,374 828,377 822,381 816,384 810,387 804,391 798,394 792,398 786,401 780,405 774,408 768,412 762,416 756,420 750,424 744,428 738,432 731,436 725,440 719,444 713,448 707,452 701,457 695,461 690,465 684,470 678,474 672,479 666,484 660,488 654,493 649,498 643,502 637,507 631,512 626,517 620,522 615,527 609,532 603,537 598,542 593,547 587,553 582,558 577,563 571,568 566,574 561,579 556,584 551,590 546,595 541,600 536,606 531,611 526,617 521,622 517,628 512,633 507,639 503,644 498,650 494,655 489,661 485,666 481,672 476,677 472,683 468,688 464,694 460,699 456,705 452,710 448,716 444,721 441,726 437,732 433,737 430,742 426,748 423,753 419,758 416,763 413,768 410,773 406,778 403,783 400,788 397,793 394,798 391,803 388,808 385,812 383,817 380,821 377,826 374,830 372,834 369,839 367,843 364,847 362,851 359,855 357,859 355,863 353,866 350,870 348,873 346,877 344,880 342,883 340,886 338,889 336,892 334,895 332,898 330,900 328,903 326,905 325,908 323,910 321,912 319,914 318,915 316,917 314,919 313,920 311,922 310,923 308,924 306,925 305,926 303,926 302,927 300,927 299,928 298,928 296,928 295,928 293,928 292,927 290,927 289,926 288,926 286,925 285,924 284,923 282,921 281,920 279,918 278,917 277,915 275,913 274,911 273,909 271,907 270,904 269,902 267,899 266,896 264,893 263,890 262,887 260,884 259,880 257,877 256,873 255,869 253,865 252,861 250,857 249,853 247,848 246,844 244,839 243,834 241,830 240,825 238,820 237,815 235,809 234,804 232,799 231,793 229,788 228,782 226,776 224,770 223,764 221,759 220,752 218,746 216,740 215,734 213,728 211,721 210,715 208,708 206,702 205,695 203,688 201,682 199,675 198,668 196,661 194,655 193,648 191,641 189,634 187,627 186,620 184,613 182,606 180,599 179,592 177,585 175,578 174,571 172,564 170,558 168,551 167,544 165,537 163,530 162,523 160,516 158,510 157,503 155,496 153,490 152,483 150,476 148,470 147,464 145,457 144,451 142,445 141,439 139,432 138,426 136,421 135,415 133,409 132,403 131,398 129,392 128,387 127,381 125,376 124,371 123,366 122,361 120,356 119,352 118,347 117,343 116,338 115,334 114,330 113,326 112,322 111,319 110,315 109,312 108,308 108,305 107,302 106,299 106,297 105,294 104,291 104,289 103,287 103,285 102,283 102,281 101,280 101,278 101,277 100,276 100,275 100,274 100,273 100,273 99,272 99,272 99,272 "/>
</svg>
