<svg width="1200" height="1200" viewBox="0 0 1200 1200" xmlns="http://www.w3.org/2000/svg">
<rect x="0" y="0" width="1200" height="1200" opacity="1" fill="#FFFFFF" stroke="none"/>
<circle cx="1099" cy="272" r="3" opacity="1" fill="#000000" stroke="none" stroke-width="1"/>
<polyline fill="none" opacity="1" stroke="#FF0000" stroke-width="10" points="474,572 599,572 "/>
<polyline fill="none" opacity="1" stroke="#0000FF" stroke-width="10" points="474,572 474,447 "/>
<circle cx="911" cy="472" r="5" opacity="1" fill="#FF0000" stroke="none" stroke-width="1"/>
<polyline fill="none" opacity="1" stroke="#FF0000" stroke-width="5" points="474,572 911,472 "/>
<polyline fill="none" opacity="1" stroke="#FF0000" stroke-width="7" points="911,472 910,472 908,473 903,474 898,475 890,477 881,479 870,481 857,484 843,487 828,491 811,495 793,499 773,503 753,508 731,513 708,518 685,524 660,529 635,535 609,541 583,547 556,553 529,559 502,566 474,572 447,578 419,584 392,591 365,597 339,603 313,609 288,614 263,620 240,625 217,631 195,636 175,640 155,645 137,649 120,653 105,656 91,659 79,662 68,665 58,667 51,669 45,670 40,671 38,672 37,672 38,672 40,671 45,670 51,669 58,667 68,665 79,662 91,659 105,656 120,653 137,649 155,645 175,640 195,636 217,631 240,625 263,620 288,614 313,609 339,603 365,597 392,591 419,584 447,578 474,572 502,566 529,559 556,553 583,547 609,541 635,535 660,529 685,524 708,518 731,513 753,508 773,503 793,499 811,495 828,491 843,487 857,484 870,481 881,479 890,477 898,475 903,474 908,473 910,472 "/>
<circle cx="1036" cy="172" r="5" opacity="1" fill="#FF0000" stroke="none" stroke-width="1"/>
<polyline fill="none" opacity="1" stroke="#FF0000" stroke-width="5" points="911,472 1036,172 "/>
<polyline fill="none" opacity="1" stroke="#FF0000" stroke-width="7" points="1036,172 1036,173 1035,175 1034,177 1032,182 1030,187 1027,193 1024,201 1021,209 1017,219 1012,229 1007,241 1002,253 997,267 991,281 985,296 978,311 971,327 964,344 957,362 950,379 942,397 935,416 927,434 919,453 911,472 903,491 896,509 888,528 880,546 873,565 865,582 858,600 851,616 844,633 838,648 832,663 826,677 820,690 815,703 810,714 806,725 802,735 798,743 795,751 792,757 790,762 789,766 787,769 787,771 786,772 787,771 787,769 789,766 790,762 792,757 795,751 798,743 802,735 806,725 810,714 815,703 820,690 826,677 832,663 838,648 844,633 851,616 858,600 865,582 873,565 880,546 888,528 896,509 903,491 911,472 919,453 927,434 935,416 942,397 950,379 957,362 964,344 971,327 978,311 985,296 991,281 997,267 1002,253 1007,241 1012,229 1017,219 1021,209 1024,201 1027,193 1030,187 1032,182 1034,177 1035,175 1036,173 "/>
<circle cx="1099" cy="272" r="5" opacity="1" fill="#FF0000" stroke="none" stroke-width="1"/>
<polyline fill="none" opacity="1" stroke="#FF0000" stroke-width="5" points="1036,172 1099,272 "/>
<polyline fill="none" opacity="1" stroke="#FF0000" stroke-width="7" points="1099,272 1098,272 1098,271 1097,270 1097,269 1096,267 1094,265 1093,263 1091,260 1089,257 1087,253 1084,249 1082,245 1079,241 1076,236 1073,231 1070,226 1066,220 1063,215 1059,209 1055,203 1052,197 1048,191 1044,185 1040,178 1036,172 1032,166 1028,160 1024,153 1021,147 1017,141 1013,135 1010,130 1006,124 1003,119 999,113 996,108 993,104 991,99 988,95 986,91 983,88 981,85 980,82 978,79 977,77 976,75 975,74 974,73 974,72 974,72 974,72 974,73 975,74 976,75 977,77 978,79 980,82 981,85 983,88 986,91 988,95 991,99 993,104 996,108 999,113 1003,119 1006,124 1010,130 1013,135 1017,141 1021,147 1024,153 1028,160 1032,166 1036,172 1040,178 1044,185 1048,191 1052,197 1055,203 1059,209 1063,215 1066,220 1070,226 1073,231 1076,236 1079,241 1082,245 1084,249 1087,253 1089,257 1091,260 1093,263 1094,265 1096,267 1097,269 1097,270 1098,271 1098,272 "/>
<polyline fill="none" opacity="1" stroke="#000000" stroke-width="10" points="1099,272 1098,272 1098,272 1097,273 1095,273 1093,274 1090,274 1087,275 1084,276 1080,277 1076,278 1071,280 1066,281 1061,283 1055,285 1048,286 1042,289 1035,291 1027,293 1019,296 1011,298 1003,301 994,304 985,308 976,311 966,315 956,319 946,323 936,327 925,331 914,336 903,341 892,346 881,351 869,356 858,362 846,368 834,374 822,381 810,387 798,394 786,401 774,408 762,416 750,424 738,432 725,440 713,448 701,457 690,465 678,474 666,484 654,493 643,502 631,512 620,522 609,532 598,542 587,553 577,563 566,574 556,584 546,595 536,606 526,617 517,628 507,639 498,650 489,661 481,672 472,683 464,694 456,705 448,716 441,726 433,737 426,748 419,758 413,768 406,778 400,788 394,798 388,808 383,817 377,826 372,834 367,843 362,851 357,859 353,866 348,873 344,880 340,886 336,892 332,898 328,903 325,908 321,912 318,915 314,919 311,922 308,924 305,926 302,927 299,928 296,928 293,928 290,927 288,926 285,924 282,921 279,918 277,915 274,911 271,907 269,902 266,896 263,890 260,884 257,877 255,869 252,861 249,853 246,844 243,834 240,825 237,815 234,804 231,793 228,782 224,770 221,759 218,746 215,734 211,721 208,708 205,695 201,682 198,668 194,655 191,641 187,627 184,613 180,599 177,585 173,571 170,558 167,544 163,530 160,516 157,503 153,490 150,476 147,464 144,451 141,439 138,426 135,415 132,403 129,392 127,381 124,371 122,361 119,352 117,343 115,334 113,326 111,319 109,312 108,305 106,299 105,294 104,289 103,285 102,281 101,278 100,276 100,274 100,273 99,272 99,272 100,273 100,274 100,276 101,278 102,281 103,285 104,289 105,294 106,299 108,305 109,312 111,319 113,326 115,334 117,343 119,352 122,361 124,371 127,381 129,392 132,403 135,415 138,426 141,439 144,451 147,464 150,476 153,490 157,503 160,516 163,530 167,544 170,558 173,571 177,585 180,599 184,613 187,627 191,641 194,655 198,668 201,682 205,695 208,708 211,721 215,734 218,746 221,759 224,770 228,782 231,793 234,804 237,815 240,825 243,834 246,844 249,853 252,861 255,869 257,877 260,884 263,890 266,896 269,902 271,907 274,911 277,915 279,918 282,921 285,924 288,926 290,927 293,928 296,928 299,928 302,927 305,926 308,924 311,922 314,919 318,915 321,912 325,908 328,903 332,898 336,892 340,886 344,880 348,873 353,866 357,859 362,851 367,843 372,834 377,826 383,817 388,808 394,798 400,788 406,778 413,768 419,758 426,748 433,737 441,726 448,716 456,705 464,694 472,683 481,672 489,661 498,650 507,639 517,628 526,617 536,606 546,595 556,584 566,574 577,563 587,553 598,542 609,532 620,522 631,512 643,502 654,493 666,484 678,474 690,465 701,457 713,448 725,440 738,432 750,424 762,416 774,408 786,401 798,394 810,387 822,381 834,374 846,368 858,362 869,356 881,351 892,346 903,341 914,336 925,331 936,327 946,323 956,319 966,315 976,311 985,308 994,304 1003,301 1011,298 1019,296 1027,293 1035,291 1042,289 1048,286 1055,285 1061,283 1066,281 1071,280 1076,278 1080,277 1084,276 1087,275 1090,274 1093,274 1095,273 1097,273 1098,272 1098,272 1099,272 "/>
</svg>
