<svg width="1200" height="1200" viewBox="0 0 1200 1200" xmlns="http://www.w3.org/2000/svg">
<rect x="0" y="0" width="1200" height="1200" opacity="1" fill="#FFFFFF" stroke="none"/>
<circle cx="599" cy="1100" r="3" opacity="1" fill="#000000" stroke="none" stroke-width="1"/>
<polyline fill="none" opacity="1" stroke="#FF0000" stroke-width="10" points="585,606 680,606 "/>
<polyline fill="none" opacity="1" stroke="#0000FF" stroke-width="10" points="585,606 585,511 "/>
<circle cx="599" cy="1100" r="5" opacity="1" fill="#FF0000" stroke="none" stroke-width="1"/>
<polyline fill="none" opacity="1" stroke="#FF0000" stroke-width="5" points="599,600 599,1100 "/>
<polyline fill="none" opacity="1" stroke="#FF0000" stroke-width="7" points="599,1100 583,1099 567,1096 552,1091 536,1084 521,1075 506,1064 492,1052 478,1038 464,1022 451,1004 438,985 427,964 415,942 405,918 395,894 386,868 378,841 371,813 365,784 359,754 355,724 352,694 349,663 348,631 347,600 348,569 349,537 352,506 355,476 359,446 365,416 371,387 378,359 386,332 395,306 405,282 415,258 427,236 438,215 451,196 464,178 478,162 492,148 506,135 521,125 536,116 552,109 567,104 583,101 599,100 615,101 631,104 646,109 662,116 677,125 692,135 706,148 720,162 734,178 747,196 760,215 771,236 783,258 793,282 803,306 812,332 820,359 827,387 833,416 839,446 843,476 846,506 849,537 850,569 851,600 850,631 849,663 846,694 843,724 839,754 833,784 827,813 820,841 812,868 803,894 793,918 783,942 771,964 760,985 747,1004 734,1022 720,1038 706,1052 692,1064 677,1075 662,1084 646,1091 631,1096 615,1099 "/>
<polyline fill="none" opacity="1" stroke="#000000" stroke-width="10" points="599,1100 595,1100 590,1099 586,1099 581,1098 577,1098 573,1097 568,1096 564,1095 559,1093 555,1092 551,1090 546,1089 542,1087 538,1085 534,1082 529,1080 525,1078 521,1075 517,1072 513,1069 509,1066 504,1063 500,1060 496,1056 492,1053 488,1049 484,1045 480,1041 477,1037 473,1032 469,1028 465,1023 461,1019 458,1014 454,1009 451,1004 447,998 444,993 440,988 437,982 433,976 430,971 427,965 424,959 421,952 417,946 414,940 411,933 409,927 406,920 403,913 400,907 397,900 395,893 392,885 390,878 387,871 385,864 383,856 381,849 378,841 376,833 374,825 372,818 370,810 369,802 367,794 365,786 364,777 362,769 361,761 359,753 358,744 357,736 355,728 354,719 353,711 352,702 352,693 351,685 350,676 349,668 349,659 348,650 348,641 348,633 347,624 347,615 347,607 347,598 347,589 347,580 348,572 348,563 348,554 349,545 349,537 350,528 350,519 351,511 352,502 353,494 354,485 355,477 356,468 357,460 359,451 360,443 361,435 363,427 364,418 366,410 368,402 369,394 371,386 373,378 375,371 377,363 379,355 382,348 384,340 386,333 389,325 391,318 394,311 396,304 399,297 402,290 404,283 407,276 410,270 413,263 416,257 419,251 422,244 425,238 428,232 432,226 435,221 438,215 442,210 445,204 449,199 452,194 456,189 460,184 463,179 467,174 471,170 475,166 479,161 482,157 486,153 490,149 494,146 498,142 502,139 506,135 511,132 515,129 519,126 523,124 527,121 532,119 536,116 540,114 544,112 549,110 553,109 557,107 562,106 566,105 570,104 575,103 579,102 584,101 588,101 592,101 597,100 601,100 606,101 610,101 614,101 619,102 623,103 628,104 632,105 636,106 641,107 645,109 649,110 654,112 658,114 662,116 666,119 671,121 675,124 679,126 683,129 687,132 692,135 696,139 700,142 704,146 708,149 712,153 716,157 719,161 723,166 727,170 731,174 735,179 738,184 742,189 746,194 749,199 753,204 756,210 760,215 763,221 766,226 770,232 773,238 776,244 779,251 782,257 785,263 788,270 791,276 794,283 796,290 799,297 802,304 804,311 807,318 809,325 812,333 814,340 816,348 819,355 821,363 823,371 825,378 827,386 829,394 830,402 832,410 834,418 835,427 837,435 838,443 839,451 841,460 842,468 843,477 844,485 845,494 846,502 847,511 848,519 848,528 849,537 849,545 850,554 850,563 850,572 851,580 851,589 851,598 851,607 851,615 851,624 850,633 850,641 850,650 849,659 849,668 848,676 847,685 846,693 846,702 845,711 844,719 843,728 841,736 840,744 839,753 837,761 836,769 834,777 833,786 831,794 829,802 828,810 826,818 824,825 822,833 820,841 817,849 815,856 813,864 811,871 808,878 806,885 803,893 801,900 798,907 795,913 792,920 789,927 787,933 784,940 781,946 777,952 774,959 771,965 768,971 765,976 761,982 758,988 754,993 751,998 747,1004 744,1009 740,1014 737,1019 733,1023 729,1028 725,1032 721,1037 718,1041 714,1045 710,1049 706,1053 702,1056 698,1060 694,1063 689,1066 685,1069 681,1072 677,1075 673,1078 669,1080 664,1082 660,1085 656,1087 652,1089 647,1090 643,1092 639,1093 634,1095 630,1096 625,1097 621,1098 617,1098 612,1099 608,1099 603,1100 599,1100 "/>
</svg>
