<svg width="1200" height="1200" viewBox="0 0 1200 1200" xmlns="http://www.w3.org/2000/svg">
<rect x="0" y="0" width="1200" height="1200" opacity="1" fill="#FFFFFF" stroke="none"/>
<circle cx="599" cy="1100" r="3" opacity="1" fill="#000000" stroke="none" stroke-width="1"/>
<polyline fill="none" opacity="1" stroke="#FF0000" stroke-width="10" points="585,585 679,585 "/>
<polyline fill="none" opacity="1" stroke="#0000FF" stroke-width="10" points="585,585 585,491 "/>
<circle cx="599" cy="1077" r="5" opacity="1" fill="#FF0000" stroke="none" stroke-width="1"/>
<polyline fill="none" opacity="1" stroke="#FF0000" stroke-width="5" points="599,580 599,1077 "/>
<polyline fill="none" opacity="1" stroke="#FF0000" stroke-width="7" points="599,1077 583,1076 568,1074 552,1069 537,1062 521,1053 507,1043 492,1030 478,1016 465,1000 451,982 439,963 427,943 416,920 406,897 396,872 387,846 379,819 372,792 366,763 360,733 356,703 352,673 350,642 349,611 348,580 349,548 350,517 352,486 356,456 360,426 366,396 372,368 379,340 387,313 396,287 406,262 416,239 427,217 439,196 451,177 465,159 478,143 492,129 507,117 521,106 537,97 552,91 568,86 583,83 599,82 615,83 630,86 646,91 661,97 677,106 691,117 706,129 720,143 733,159 747,177 759,196 771,217 782,239 792,262 802,287 811,313 819,340 826,368 832,396 838,426 842,456 846,486 848,517 849,548 850,580 849,611 848,642 846,673 842,703 838,733 832,763 826,792 819,819 811,846 802,872 792,897 782,920 771,943 759,963 747,982 733,1000 720,1016 706,1030 691,1043 677,1053 661,1062 646,1069 630,1074 615,1076 "/>
<circle cx="599" cy="1098" r="5" opacity="1" fill="#FF0000" stroke="none" stroke-width="1"/>
<polyline fill="none" opacity="1" stroke="#FF0000" stroke-width="5" points="599,1077 599,1098 "/>
<polyline fill="none" opacity="1" stroke="#FF0000" stroke-width="7" points="599,1098 595,1098 592,1098 588,1097 585,1097 581,1097 578,1096 575,1096 572,1095 568,1095 566,1094 563,1093 560,1092 557,1091 555,1090 553,1089 551,1088 549,1087 547,1086 546,1085 545,1084 544,1083 543,1081 542,1080 542,1079 542,1077 542,1076 542,1075 543,1074 544,1072 545,1071 546,1070 547,1069 549,1068 551,1067 553,1065 555,1064 557,1064 560,1063 563,1062 566,1061 568,1060 572,1060 575,1059 578,1059 581,1058 585,1058 588,1057 592,1057 595,1057 599,1057 603,1057 606,1057 610,1057 613,1058 617,1058 620,1059 623,1059 626,1060 630,1060 633,1061 635,1062 638,1063 641,1064 643,1064 645,1065 647,1067 649,1068 651,1069 652,1070 653,1071 654,1072 655,1074 656,1075 656,1076 656,1077 656,1079 656,1080 655,1081 654,1083 653,1084 652,1085 651,1086 649,1087 647,1088 645,1089 643,1090 641,1091 638,1092 635,1093 633,1094 630,1095 626,1095 623,1096 620,1096 617,1097 613,1097 610,1097 606,1098 603,1098 "/>
<circle cx="599" cy="1100" r="5" opacity="1" fill="#FF0000" stroke="none" stroke-width="1"/>
<polyline fill="none" opacity="1" stroke="#FF0000" stroke-width="5" points="599,1098 599,1100 "/>
<polyline fill="none" opacity="1" stroke="#FF0000" stroke-width="7" points="599,1100 592,1100 585,1100 579,1100 572,1100 565,1099 559,1099 553,1099 547,1099 541,1099 535,1099 530,1099 525,1099 520,1099 515,1099 511,1099 507,1099 504,1099 501,1099 498,1098 496,1098 494,1098 492,1098 491,1098 490,1098 490,1098 490,1098 491,1098 492,1097 494,1097 496,1097 498,1097 501,1097 504,1097 507,1097 511,1097 515,1097 520,1097 525,1097 530,1096 535,1096 541,1096 547,1096 553,1096 559,1096 565,1096 572,1096 579,1096 585,1096 592,1096 599,1096 606,1096 613,1096 619,1096 626,1096 633,1096 639,1096 645,1096 651,1096 657,1096 663,1096 668,1096 673,1097 678,1097 683,1097 687,1097 691,1097 694,1097 697,1097 700,1097 702,1097 704,1097 706,1097 707,1098 708,1098 708,1098 708,1098 707,1098 706,1098 704,1098 702,1098 700,1098 697,1099 694,1099 691,1099 687,1099 683,1099 678,1099 673,1099 668,1099 663,1099 657,1099 651,1099 645,1099 639,1099 633,1099 626,1100 619,1100 613,1100 606,1100 "/>
<polyline fill="none" opacity="1" stroke="#000000" stroke-width="10" points="599,1100 587,1099 575,1099 563,1099 551,1098 539,1097 527,1096 515,1095 504,1094 492,1092 481,1091 470,1089 459,1087 449,1084 438,1082 428,1079 418,1076 409,1074 399,1070 391,1067 382,1064 374,1060 366,1056 358,1052 351,1048 344,1044 337,1040 331,1035 325,1030 320,1026 315,1021 310,1015 306,1010 302,1005 299,999 296,993 294,988 291,982 290,975 288,969 287,963 287,956 286,950 286,943 287,936 288,930 289,923 290,915 292,908 294,901 297,894 299,886 302,879 305,871 309,863 312,855 316,847 320,839 324,831 329,823 333,815 338,807 342,799 347,790 352,782 357,774 362,765 367,757 372,748 377,740 382,731 387,722 392,714 397,705 401,696 406,688 411,679 415,670 419,662 423,653 427,644 431,635 435,627 438,618 442,609 445,600 448,592 450,583 453,574 455,566 457,557 459,549 461,540 462,531 463,523 464,514 465,506 465,498 466,489 466,481 465,473 465,464 465,456 464,448 463,440 462,432 460,424 459,416 457,408 455,401 454,393 452,385 449,378 447,370 445,363 443,356 440,348 438,341 435,334 433,327 430,320 428,313 425,306 423,300 420,293 418,287 416,280 414,274 412,268 410,261 408,255 406,250 405,244 403,238 402,232 401,227 401,221 400,216 400,211 400,206 400,201 400,196 401,191 402,186 403,182 404,177 406,173 408,169 410,165 413,161 415,157 418,153 422,150 425,146 429,143 433,140 438,137 442,134 447,131 453,128 458,125 464,123 470,121 476,118 482,116 489,114 495,112 502,111 509,109 517,108 524,106 532,105 539,104 547,103 555,102 563,102 571,101 579,101 587,101 595,100 603,100 611,101 619,101 627,101 635,102 643,102 651,103 659,104 666,105 674,106 681,108 689,109 696,111 703,112 709,114 716,116 722,118 728,121 734,123 740,125 745,128 751,131 756,134 760,137 765,140 769,143 773,146 776,150 780,153 783,157 785,161 788,165 790,169 792,173 794,177 795,182 796,186 797,191 798,196 798,201 798,206 798,211 798,216 797,221 797,227 796,232 795,238 793,244 792,250 790,255 788,261 786,268 784,274 782,280 780,287 778,293 775,300 773,306 770,313 768,320 765,327 763,334 760,341 758,348 755,356 753,363 751,370 749,378 746,385 744,393 743,401 741,408 739,416 738,424 736,432 735,440 734,448 733,456 733,464 733,473 732,481 732,489 733,498 733,506 734,514 735,523 736,531 737,540 739,549 741,557 743,566 745,574 748,583 750,592 753,600 756,609 760,618 763,627 767,635 771,644 775,653 779,662 783,670 787,679 792,688 797,696 801,705 806,714 811,722 816,731 821,740 826,748 831,757 836,765 841,774 846,782 851,790 856,799 860,807 865,815 869,823 874,831 878,839 882,847 886,855 889,863 893,871 896,879 899,886 901,894 904,901 906,908 908,915 909,923 910,930 911,936 912,943 912,950 911,956 911,963 910,969 908,975 907,982 904,988 902,993 899,999 896,1005 892,1010 888,1015 883,1021 878,1026 873,1030 867,1035 861,1040 854,1044 847,1048 840,1052 832,1056 824,1060 816,1064 807,1067 799,1070 789,1074 780,1076 770,1079 760,1082 749,1084 739,1087 728,1089 717,1091 706,1092 694,1094 683,1095 671,1096 659,1097 647,1098 635,1099 623,1099 611,1099 599,1100 "/>
</svg>
