<svg width="1200" height="1200" viewBox="0 0 1200 1200" xmlns="http://www.w3.org/2000/svg">
<rect x="0" y="0" width="1200" height="1200" opacity="1" fill="#FFFFFF" stroke="none"/>
<circle cx="599" cy="1100" r="3" opacity="1" fill="#000000" stroke="none" stroke-width="1"/>
<polyline fill="none" opacity="1" stroke="#FF0000" stroke-width="10" points="585,582 679,582 "/>
<polyline fill="none" opacity="1" stroke="#0000FF" stroke-width="10" points="585,582 585,488 "/>
<circle cx="599" cy="1074" r="5" opacity="1" fill="#FF0000" stroke="none" stroke-width="1"/>
<polyline fill="none" opacity="1" stroke="#FF0000" stroke-width="5" points="599,577 599,1074 "/>
<polyline fill="none" opacity="1" stroke="#FF0000" stroke-width="7" points="599,1074 583,1073 568,1071 552,1066 537,1059 521,1050 507,1039 492,1027 478,1013 465,997 451,979 439,960 427,939 416,917 406,894 396,869 387,843 379,816 372,789 366,760 360,730 356,700 352,670 350,639 349,608 348,577 349,545 350,514 352,483 356,453 360,423 366,393 372,365 379,337 387,310 396,284 406,259 416,236 427,214 439,193 451,174 465,156 478,140 492,126 507,114 521,103 537,94 552,88 568,83 583,80 599,79 615,80 630,83 646,88 661,94 677,103 691,114 706,126 720,140 733,156 747,174 759,193 771,214 782,236 792,259 802,284 811,310 819,337 826,365 832,393 838,423 842,453 846,483 848,514 849,545 850,577 849,608 848,639 846,670 842,700 838,730 832,760 826,789 819,816 811,843 802,869 792,894 782,917 771,939 759,960 747,979 733,997 720,1013 706,1027 691,1039 677,1050 661,1059 646,1066 630,1071 615,1073 "/>
<circle cx="599" cy="1095" r="5" opacity="1" fill="#FF0000" stroke="none" stroke-width="1"/>
<polyline fill="none" opacity="1" stroke="#FF0000" stroke-width="5" points="599,1074 599,1095 "/>
<polyline fill="none" opacity="1" stroke="#FF0000" stroke-width="7" points="599,1095 595,1095 592,1095 588,1094 585,1094 581,1094 578,1093 575,1093 572,1092 568,1092 566,1091 563,1090 560,1089 557,1088 555,1087 553,1086 551,1085 549,1084 547,1083 546,1082 545,1081 544,1079 543,1078 542,1077 542,1076 542,1074 542,1073 542,1072 543,1071 544,1069 545,1068 546,1067 547,1066 549,1065 551,1064 553,1062 555,1061 557,1060 560,1060 563,1059 566,1058 568,1057 572,1057 575,1056 578,1055 581,1055 585,1055 588,1054 592,1054 595,1054 599,1054 603,1054 606,1054 610,1054 613,1055 617,1055 620,1055 623,1056 626,1057 630,1057 633,1058 635,1059 638,1060 641,1060 643,1061 645,1062 647,1064 649,1065 651,1066 652,1067 653,1068 654,1069 655,1071 656,1072 656,1073 656,1074 656,1076 656,1077 655,1078 654,1079 653,1081 652,1082 651,1083 649,1084 647,1085 645,1086 643,1087 641,1088 638,1089 635,1090 633,1091 630,1092 626,1092 623,1093 620,1093 617,1094 613,1094 610,1094 606,1095 603,1095 "/>
<circle cx="599" cy="1097" r="5" opacity="1" fill="#FF0000" stroke="none" stroke-width="1"/>
<polyline fill="none" opacity="1" stroke="#FF0000" stroke-width="5" points="599,1095 599,1097 "/>
<polyline fill="none" opacity="1" stroke="#FF0000" stroke-width="7" points="599,1097 592,1097 585,1097 579,1097 572,1096 565,1096 559,1096 553,1096 547,1096 541,1096 535,1096 530,1096 525,1096 520,1096 515,1096 511,1096 507,1096 504,1096 501,1096 498,1095 496,1095 494,1095 492,1095 491,1095 490,1095 490,1095 490,1095 491,1095 492,1094 494,1094 496,1094 498,1094 501,1094 504,1094 507,1094 511,1094 515,1094 520,1094 525,1094 530,1093 535,1093 541,1093 547,1093 553,1093 559,1093 565,1093 572,1093 579,1093 585,1093 592,1093 599,1093 606,1093 613,1093 619,1093 626,1093 633,1093 639,1093 645,1093 651,1093 657,1093 663,1093 668,1093 673,1094 678,1094 683,1094 687,1094 691,1094 694,1094 697,1094 700,1094 702,1094 704,1094 706,1094 707,1095 708,1095 708,1095 708,1095 707,1095 706,1095 704,1095 702,1095 700,1095 697,1096 694,1096 691,1096 687,1096 683,1096 678,1096 673,1096 668,1096 663,1096 657,1096 651,1096 645,1096 639,1096 633,1096 626,1096 619,1097 613,1097 606,1097 "/>
<circle cx="599" cy="1100" r="5" opacity="1" fill="#FF0000" stroke="none" stroke-width="1"/>
<polyline fill="none" opacity="1" stroke="#FF0000" stroke-width="5" points="599,1097 599,1100 "/>
<polyline fill="none" opacity="1" stroke="#FF0000" stroke-width="7" points="599,1100 602,1100 605,1100 608,1100 611,1099 614,1099 617,1099 620,1099 623,1099 625,1099 628,1099 630,1099 633,1099 635,1099 637,1098 639,1098 641,1098 642,1098 644,1098 645,1098 646,1097 647,1097 648,1097 648,1097 648,1097 648,1097 648,1096 648,1096 648,1096 647,1096 646,1096 645,1095 644,1095 642,1095 641,1095 639,1095 637,1095 635,1094 633,1094 630,1094 628,1094 625,1094 623,1094 620,1094 617,1094 614,1094 611,1094 608,1094 605,1094 602,1094 599,1094 596,1094 593,1094 590,1094 587,1094 584,1094 581,1094 578,1094 575,1094 573,1094 570,1094 568,1094 565,1094 563,1094 561,1095 559,1095 557,1095 556,1095 554,1095 553,1095 552,1096 551,1096 550,1096 550,1096 550,1096 550,1097 550,1097 550,1097 550,1097 551,1097 552,1097 553,1098 554,1098 556,1098 557,1098 559,1098 561,1098 563,1099 565,1099 568,1099 570,1099 573,1099 575,1099 578,1099 581,1099 584,1099 587,1099 590,1100 593,1100 596,1100 "/>
<polyline fill="none" opacity="1" stroke="#000000" stroke-width="10" points="599,1100 590,1099 582,1099 573,1099 564,1098 556,1097 547,1096 539,1095 530,1093 522,1092 513,1090 505,1088 496,1086 488,1083 479,1081 471,1078 463,1075 455,1072 447,1068 438,1065 431,1061 423,1057 415,1053 407,1049 400,1045 392,1040 385,1036 378,1031 371,1026 364,1021 358,1016 351,1011 345,1005 339,1000 333,994 328,988 322,982 317,976 313,970 308,963 304,957 300,951 296,944 293,937 290,930 287,923 285,916 283,909 281,902 280,895 279,888 279,880 279,873 279,865 279,858 280,850 281,842 283,834 285,827 287,819 290,811 293,803 296,795 300,787 304,778 308,770 313,762 318,754 323,745 328,737 333,729 339,720 345,712 351,703 357,695 364,686 370,678 376,669 383,661 390,652 396,643 403,635 409,626 416,618 422,609 429,600 435,592 441,583 447,574 453,566 458,557 463,549 468,540 473,531 478,523 482,514 486,506 489,497 493,489 495,480 498,472 500,464 502,455 503,447 504,439 505,430 505,422 505,414 505,406 504,398 502,390 501,383 499,375 497,367 494,359 491,352 488,344 484,337 481,330 477,322 472,315 468,308 463,301 459,295 454,288 449,281 444,275 439,268 434,262 429,256 424,250 419,244 414,238 409,232 404,226 400,221 396,215 392,210 388,205 385,200 382,195 379,190 376,185 374,181 373,176 371,172 371,168 370,164 370,160 371,156 372,153 373,149 375,146 378,142 381,139 384,136 389,133 393,131 398,128 404,125 410,123 416,121 423,119 431,117 438,115 447,113 455,111 464,110 474,108 484,107 494,106 504,105 514,104 525,103 536,102 547,102 559,101 570,101 582,101 593,100 605,100 616,101 628,101 639,101 651,102 662,102 673,103 684,104 694,105 704,106 714,107 724,108 734,110 743,111 751,113 760,115 767,117 775,119 782,121 788,123 794,125 800,128 805,131 809,133 814,136 817,139 820,142 823,146 825,149 826,153 827,156 828,160 828,164 827,168 827,172 825,176 824,181 822,185 819,190 816,195 813,200 810,205 806,210 802,215 798,221 794,226 789,232 784,238 779,244 774,250 769,256 764,262 759,268 754,275 749,281 744,288 739,295 735,301 730,308 726,315 721,322 717,330 714,337 710,344 707,352 704,359 701,367 699,375 697,383 696,390 694,398 693,406 693,414 693,422 693,430 694,439 695,447 696,455 698,464 700,472 703,480 705,489 709,497 712,506 716,514 720,523 725,531 730,540 735,549 740,557 745,566 751,574 757,583 763,592 769,600 776,609 782,618 789,626 795,635 802,643 808,652 815,661 822,669 828,678 834,686 841,695 847,703 853,712 859,720 865,729 870,737 875,745 880,754 885,762 890,770 894,778 898,787 902,795 905,803 908,811 911,819 913,827 915,834 917,842 918,850 919,858 919,865 919,873 919,880 919,888 918,895 917,902 915,909 913,916 911,923 908,930 905,937 902,944 898,951 894,957 890,963 885,970 881,976 876,982 870,988 865,994 859,1000 853,1005 847,1011 840,1016 834,1021 827,1026 820,1031 813,1036 806,1040 798,1045 791,1049 783,1053 775,1057 767,1061 760,1065 751,1068 743,1072 735,1075 727,1078 719,1081 710,1083 702,1086 693,1088 685,1090 676,1092 668,1093 659,1095 651,1096 642,1097 634,1098 625,1099 616,1099 608,1099 599,1100 "/>
</svg>
