<svg width="1200" height="1200" viewBox="0 0 1200 1200" xmlns="http://www.w3.org/2000/svg">
<rect x="0" y="0" width="1200" height="1200" opacity="1" fill="#FFFFFF" stroke="none"/>
<circle cx="599" cy="1100" r="3" opacity="1" fill="#000000" stroke="none" stroke-width="1"/>
<polyline fill="none" opacity="1" stroke="#FF0000" stroke-width="10" points="584,585 683,585 "/>
<polyline fill="none" opacity="1" stroke="#0000FF" stroke-width="10" points="584,585 584,486 "/>
<circle cx="599" cy="1100" r="5" opacity="1" fill="#FF0000" stroke="none" stroke-width="1"/>
<polyline fill="none" opacity="1" stroke="#FF0000" stroke-width="5" points="599,579 599,1100 "/>
<polyline fill="none" opacity="1" stroke="#FF0000" stroke-width="7" points="599,1100 583,1099 566,1096 550,1091 534,1084 518,1075 502,1064 487,1051 472,1036 458,1019 445,1001 432,981 419,959 407,936 397,911 386,885 377,858 369,830 361,801 355,771 349,740 345,709 341,677 338,644 337,612 336,579 337,546 338,514 341,481 345,449 349,418 355,387 361,357 369,328 377,300 386,273 397,247 407,222 419,199 432,177 445,157 458,139 472,122 487,107 502,94 518,83 534,74 550,67 566,62 583,59 599,58 615,59 632,62 648,67 664,74 680,83 696,94 711,107 726,122 740,139 753,157 766,177 779,199 791,222 801,247 812,273 821,300 829,328 837,357 843,387 849,418 853,449 857,481 860,514 861,546 862,579 861,612 860,644 857,677 853,709 849,740 843,771 837,801 829,830 821,858 812,885 801,911 791,936 779,959 766,981 753,1001 740,1019 726,1036 711,1051 696,1064 680,1075 664,1084 648,1091 632,1096 615,1099 "/>
<circle cx="599" cy="1122" r="5" opacity="1" fill="#FF0000" stroke="none" stroke-width="1"/>
<polyline fill="none" opacity="1" stroke="#FF0000" stroke-width="5" points="599,1100 599,1122 "/>
<polyline fill="none" opacity="1" stroke="#FF0000" stroke-width="7" points="599,1122 595,1122 592,1121 588,1121 584,1121 581,1121 577,1120 574,1120 570,1119 567,1118 564,1117 561,1117 558,1116 556,1115 553,1114 551,1113 549,1112 547,1110 545,1109 544,1108 542,1107 541,1106 540,1104 540,1103 539,1102 539,1100 539,1099 540,1098 540,1096 541,1095 542,1094 544,1092 545,1091 547,1090 549,1089 551,1088 553,1087 556,1086 558,1085 561,1084 564,1083 567,1082 570,1082 574,1081 577,1080 581,1080 584,1080 588,1079 592,1079 595,1079 599,1079 603,1079 606,1079 610,1079 614,1080 617,1080 621,1080 624,1081 628,1082 631,1082 634,1083 637,1084 640,1085 642,1086 645,1087 647,1088 649,1089 651,1090 653,1091 654,1092 656,1094 657,1095 658,1096 658,1098 659,1099 659,1100 659,1102 658,1103 658,1104 657,1106 656,1107 654,1108 653,1109 651,1110 649,1112 647,1113 645,1114 642,1115 640,1116 637,1117 634,1117 631,1118 628,1119 624,1120 621,1120 617,1121 614,1121 610,1121 606,1121 603,1122 "/>
<circle cx="599" cy="1123" r="5" opacity="1" fill="#FF0000" stroke="none" stroke-width="1"/>
<polyline fill="none" opacity="1" stroke="#FF0000" stroke-width="5" points="599,1122 599,1123 "/>
<polyline fill="none" opacity="1" stroke="#FF0000" stroke-width="7" points="599,1123 592,1123 585,1123 578,1123 571,1123 564,1123 557,1123 551,1123 544,1123 538,1123 532,1123 526,1123 521,1123 516,1123 511,1123 507,1123 503,1123 499,1122 496,1122 493,1122 491,1122 489,1122 487,1122 486,1122 485,1122 485,1122 485,1121 486,1121 487,1121 489,1121 491,1121 493,1121 496,1121 499,1121 503,1121 507,1120 511,1120 516,1120 521,1120 526,1120 532,1120 538,1120 544,1120 551,1120 557,1120 564,1120 571,1120 578,1120 585,1120 592,1120 599,1120 606,1120 613,1120 620,1120 627,1120 634,1120 641,1120 647,1120 654,1120 660,1120 666,1120 672,1120 677,1120 682,1120 687,1120 691,1120 695,1121 699,1121 702,1121 705,1121 707,1121 709,1121 711,1121 712,1121 713,1121 713,1122 713,1122 712,1122 711,1122 709,1122 707,1122 705,1122 702,1122 699,1122 695,1123 691,1123 687,1123 682,1123 677,1123 672,1123 666,1123 660,1123 654,1123 647,1123 641,1123 634,1123 627,1123 620,1123 613,1123 606,1123 "/>
<circle cx="599" cy="1127" r="5" opacity="1" fill="#FF0000" stroke="none" stroke-width="1"/>
<polyline fill="none" opacity="1" stroke="#FF0000" stroke-width="5" points="599,1123 599,1127 "/>
<polyline fill="none" opacity="1" stroke="#FF0000" stroke-width="7" points="599,1127 602,1127 605,1127 609,1127 612,1126 615,1126 618,1126 621,1126 624,1126 627,1126 629,1126 632,1126 634,1126 637,1126 639,1125 641,1125 643,1125 644,1125 646,1125 647,1125 648,1124 649,1124 650,1124 650,1124 651,1124 651,1123 651,1123 650,1123 650,1123 649,1123 648,1122 647,1122 646,1122 644,1122 643,1122 641,1122 639,1121 637,1121 634,1121 632,1121 629,1121 627,1121 624,1121 621,1121 618,1120 615,1120 612,1120 609,1120 605,1120 602,1120 599,1120 596,1120 593,1120 589,1120 586,1120 583,1120 580,1120 577,1121 574,1121 571,1121 569,1121 566,1121 564,1121 561,1121 559,1121 557,1122 555,1122 554,1122 552,1122 551,1122 550,1122 549,1123 548,1123 548,1123 547,1123 547,1123 547,1124 548,1124 548,1124 549,1124 550,1124 551,1125 552,1125 554,1125 555,1125 557,1125 559,1125 561,1126 564,1126 566,1126 569,1126 571,1126 574,1126 577,1126 580,1126 583,1126 586,1126 589,1127 593,1127 596,1127 "/>
<circle cx="599" cy="1100" r="5" opacity="1" fill="#FF0000" stroke="none" stroke-width="1"/>
<polyline fill="none" opacity="1" stroke="#FF0000" stroke-width="5" points="599,1127 599,1100 "/>
<polyline fill="none" opacity="1" stroke="#FF0000" stroke-width="7" points="599,1100 598,1100 597,1100 595,1100 594,1100 593,1101 592,1101 591,1102 590,1103 589,1104 588,1105 587,1106 586,1107 585,1108 584,1109 583,1111 583,1112 582,1114 581,1115 581,1117 580,1118 580,1120 580,1122 580,1123 580,1125 580,1127 580,1128 580,1130 580,1132 580,1133 580,1135 581,1136 581,1138 582,1140 583,1141 583,1142 584,1144 585,1145 586,1146 587,1147 588,1148 589,1149 590,1150 591,1151 592,1152 593,1152 594,1153 595,1153 597,1153 598,1153 599,1154 600,1153 601,1153 603,1153 604,1153 605,1152 606,1152 607,1151 608,1150 609,1149 610,1148 611,1147 612,1146 613,1145 614,1144 615,1142 615,1141 616,1140 617,1138 617,1136 618,1135 618,1133 618,1132 618,1130 618,1128 618,1127 618,1125 618,1123 618,1122 618,1120 618,1118 617,1117 617,1115 616,1114 615,1112 615,1111 614,1109 613,1108 612,1107 611,1106 610,1105 609,1104 608,1103 607,1102 606,1101 605,1101 604,1100 603,1100 601,1100 600,1100 "/>
<polyline fill="none" opacity="1" stroke="#000000" stroke-width="10" points="599,1100 588,1100 578,1100 567,1100 556,1100 546,1100 535,1100 525,1099 514,1099 504,1099 494,1099 484,1099 474,1098 465,1098 455,1097 446,1097 437,1096 428,1095 420,1094 412,1093 403,1091 396,1089 388,1088 381,1085 374,1083 367,1080 360,1077 354,1074 348,1071 342,1067 337,1062 331,1058 327,1053 322,1048 317,1042 313,1037 310,1030 306,1024 303,1017 300,1010 297,1003 294,995 292,987 290,978 288,970 287,961 285,952 284,943 283,933 283,923 283,914 283,904 283,893 283,883 284,873 285,863 286,852 287,842 288,831 290,821 292,810 294,800 297,790 300,779 302,769 305,759 309,750 312,740 316,730 320,721 324,712 328,702 333,694 337,685 342,676 347,668 352,660 357,652 363,644 368,636 374,629 380,621 385,614 391,607 397,600 403,593 409,586 415,579 421,573 426,566 432,559 438,553 443,546 449,539 454,532 459,526 464,519 468,512 473,505 477,498 481,490 485,483 488,476 491,468 494,460 496,452 498,444 499,436 501,428 501,419 502,410 502,402 501,393 500,384 499,375 498,365 496,356 493,347 490,337 487,328 484,318 480,309 476,299 471,290 466,281 461,271 456,262 451,253 445,244 439,235 433,227 428,218 422,210 416,202 410,194 404,187 398,180 393,173 387,166 382,160 377,154 373,148 369,143 365,138 361,133 358,129 356,125 354,121 352,118 351,115 351,112 351,110 352,108 353,106 355,105 358,103 361,102 365,102 370,101 375,101 382,100 388,100 395,101 403,101 412,101 421,101 431,102 441,103 451,103 463,104 474,104 486,105 499,105 511,106 524,106 538,107 551,107 565,107 578,107 592,107 606,107 620,107 633,107 647,107 660,107 674,106 687,106 699,105 712,105 724,104 735,104 747,103 757,103 767,102 777,101 786,101 795,101 803,101 810,100 816,100 823,101 828,101 833,102 837,102 840,103 843,105 845,106 846,108 847,110 847,112 847,115 846,118 844,121 842,125 840,129 837,133 833,138 829,143 825,148 821,154 816,160 811,166 805,173 800,180 794,187 788,194 782,202 776,210 770,218 765,227 759,235 753,244 747,253 742,262 737,271 732,281 727,290 722,299 718,309 714,318 711,328 708,337 705,347 702,356 700,365 699,375 698,384 697,393 696,402 696,410 697,419 697,428 699,436 700,444 702,452 704,460 707,468 710,476 713,483 717,490 721,498 725,505 730,512 734,519 739,526 744,532 749,539 755,546 760,553 766,559 772,566 777,573 783,579 789,586 795,593 801,600 807,607 813,614 818,621 824,629 830,636 835,644 841,652 846,660 851,668 856,676 861,685 865,694 870,702 874,712 878,721 882,730 886,740 889,750 893,759 896,769 898,779 901,790 904,800 906,810 908,821 910,831 911,842 912,852 913,863 914,873 915,883 915,893 915,904 915,914 915,923 915,933 914,943 913,952 911,961 910,970 908,978 906,987 904,995 901,1003 898,1010 895,1017 892,1024 888,1030 885,1037 881,1042 876,1048 871,1053 867,1058 861,1062 856,1067 850,1071 844,1074 838,1077 831,1080 824,1083 817,1085 810,1088 802,1089 795,1091 786,1093 778,1094 770,1095 761,1096 752,1097 743,1097 733,1098 724,1098 714,1099 704,1099 694,1099 684,1099 673,1099 663,1100 652,1100 642,1100 631,1100 620,1100 610,1100 599,1100 "/>
</svg>
