<svg width="1200" height="1200" viewBox="0 0 1200 1200" xmlns="http://www.w3.org/2000/svg">
<rect x="0" y="0" width="1200" height="1200" opacity="1" fill="#FFFFFF" stroke="none"/>
<circle cx="599" cy="1094" r="3" opacity="1" fill="#000000" stroke="none" stroke-width="1"/>
<polyline fill="none" opacity="1" stroke="#FF0000" stroke-width="10" points="584,587 683,587 "/>
<polyline fill="none" opacity="1" stroke="#0000FF" stroke-width="10" points="584,587 584,488 "/>
<circle cx="599" cy="1103" r="5" opacity="1" fill="#FF0000" stroke="none" stroke-width="1"/>
<polyline fill="none" opacity="1" stroke="#FF0000" stroke-width="5" points="599,581 599,1103 "/>
<polyline fill="none" opacity="1" stroke="#FF0000" stroke-width="7" points="599,1103 582,1102 566,1099 550,1094 534,1087 518,1077 502,1066 487,1053 472,1038 458,1022 444,1003 431,983 419,961 407,938 396,914 386,888 377,861 368,832 361,803 354,773 349,742 344,711 341,679 338,646 336,614 336,581 336,548 338,515 341,483 344,451 349,420 354,389 361,359 368,329 377,301 386,274 396,248 407,224 419,200 431,179 444,159 458,140 472,123 487,109 502,96 518,84 534,75 550,68 566,63 582,60 599,59 616,60 632,63 648,68 664,75 680,84 696,96 711,109 726,123 740,140 754,159 767,179 779,200 791,224 802,248 812,274 821,301 830,329 837,359 844,389 849,420 854,451 857,483 860,515 862,548 862,581 862,614 860,646 857,679 854,711 849,742 844,773 837,803 830,832 821,861 812,888 802,914 791,938 779,961 767,983 754,1003 740,1022 726,1038 711,1053 696,1066 680,1077 664,1087 648,1094 632,1099 616,1102 "/>
<circle cx="599" cy="1124" r="5" opacity="1" fill="#FF0000" stroke="none" stroke-width="1"/>
<polyline fill="none" opacity="1" stroke="#FF0000" stroke-width="5" points="599,1103 599,1124 "/>
<polyline fill="none" opacity="1" stroke="#FF0000" stroke-width="7" points="599,1124 595,1124 592,1124 588,1124 584,1124 581,1123 577,1123 574,1122 570,1122 567,1121 564,1120 561,1119 558,1118 555,1118 553,1117 551,1115 549,1114 547,1113 545,1112 543,1111 542,1110 541,1108 540,1107 540,1106 539,1104 539,1103 539,1102 540,1100 540,1099 541,1098 542,1096 543,1095 545,1094 547,1093 549,1091 551,1090 553,1089 555,1088 558,1087 561,1086 564,1086 567,1085 570,1084 574,1084 577,1083 581,1083 584,1082 588,1082 592,1082 595,1082 599,1082 603,1082 606,1082 610,1082 614,1082 617,1083 621,1083 624,1084 628,1084 631,1085 634,1086 637,1086 640,1087 643,1088 645,1089 647,1090 649,1091 651,1093 653,1094 655,1095 656,1096 657,1098 658,1099 658,1100 659,1102 659,1103 659,1104 658,1106 658,1107 657,1108 656,1110 655,1111 653,1112 651,1113 649,1114 647,1115 645,1117 643,1118 640,1118 637,1119 634,1120 631,1121 628,1122 624,1122 621,1123 617,1123 614,1124 610,1124 606,1124 603,1124 "/>
<circle cx="599" cy="1126" r="5" opacity="1" fill="#FF0000" stroke="none" stroke-width="1"/>
<polyline fill="none" opacity="1" stroke="#FF0000" stroke-width="5" points="599,1124 599,1126 "/>
<polyline fill="none" opacity="1" stroke="#FF0000" stroke-width="7" points="599,1126 592,1126 585,1126 578,1126 571,1126 564,1126 557,1126 550,1126 544,1126 538,1126 532,1126 526,1126 521,1126 516,1126 511,1125 507,1125 503,1125 499,1125 496,1125 493,1125 491,1125 489,1125 487,1125 486,1124 485,1124 485,1124 485,1124 486,1124 487,1124 489,1124 491,1124 493,1124 496,1123 499,1123 503,1123 507,1123 511,1123 516,1123 521,1123 526,1123 532,1123 538,1123 544,1123 550,1123 557,1123 564,1123 571,1122 578,1122 585,1122 592,1122 599,1122 606,1122 613,1122 620,1122 627,1122 634,1123 641,1123 648,1123 654,1123 660,1123 666,1123 672,1123 677,1123 682,1123 687,1123 691,1123 695,1123 699,1123 702,1123 705,1124 707,1124 709,1124 711,1124 712,1124 713,1124 713,1124 713,1124 712,1124 711,1125 709,1125 707,1125 705,1125 702,1125 699,1125 695,1125 691,1125 687,1125 682,1126 677,1126 672,1126 666,1126 660,1126 654,1126 648,1126 641,1126 634,1126 627,1126 620,1126 613,1126 606,1126 "/>
<circle cx="599" cy="1129" r="5" opacity="1" fill="#FF0000" stroke="none" stroke-width="1"/>
<polyline fill="none" opacity="1" stroke="#FF0000" stroke-width="5" points="599,1126 599,1129 "/>
<polyline fill="none" opacity="1" stroke="#FF0000" stroke-width="7" points="599,1129 602,1129 605,1129 609,1129 612,1129 615,1129 618,1129 621,1129 624,1129 627,1129 629,1129 632,1129 634,1128 637,1128 639,1128 641,1128 643,1128 644,1128 646,1127 647,1127 648,1127 649,1127 650,1127 650,1126 651,1126 651,1126 651,1126 650,1126 650,1125 649,1125 648,1125 647,1125 646,1125 644,1125 643,1124 641,1124 639,1124 637,1124 634,1124 632,1124 629,1124 627,1123 624,1123 621,1123 618,1123 615,1123 612,1123 609,1123 605,1123 602,1123 599,1123 596,1123 593,1123 589,1123 586,1123 583,1123 580,1123 577,1123 574,1123 571,1123 569,1124 566,1124 564,1124 561,1124 559,1124 557,1124 555,1124 554,1125 552,1125 551,1125 550,1125 549,1125 548,1125 548,1126 547,1126 547,1126 547,1126 548,1126 548,1127 549,1127 550,1127 551,1127 552,1127 554,1128 555,1128 557,1128 559,1128 561,1128 564,1128 566,1129 569,1129 571,1129 574,1129 577,1129 580,1129 583,1129 586,1129 589,1129 593,1129 596,1129 "/>
<circle cx="599" cy="1102" r="5" opacity="1" fill="#FF0000" stroke="none" stroke-width="1"/>
<polyline fill="none" opacity="1" stroke="#FF0000" stroke-width="5" points="599,1129 599,1102 "/>
<polyline fill="none" opacity="1" stroke="#FF0000" stroke-width="7" points="599,1102 598,1102 597,1102 595,1103 594,1103 593,1104 592,1104 591,1105 590,1106 589,1106 588,1107 587,1108 586,1110 585,1111 584,1112 583,1113 583,1115 582,1116 581,1118 581,1119 580,1121 580,1123 580,1124 580,1126 580,1128 579,1129 580,1131 580,1133 580,1134 580,1136 580,1138 581,1139 581,1141 582,1142 583,1144 583,1145 584,1147 585,1148 586,1149 587,1150 588,1151 589,1152 590,1153 591,1154 592,1154 593,1155 594,1155 595,1156 597,1156 598,1156 599,1156 600,1156 601,1156 603,1156 604,1155 605,1155 606,1154 607,1154 608,1153 609,1152 610,1151 611,1150 612,1149 613,1148 614,1147 615,1145 615,1144 616,1142 617,1141 617,1139 618,1138 618,1136 618,1134 618,1133 618,1131 619,1129 618,1128 618,1126 618,1124 618,1123 618,1121 617,1119 617,1118 616,1116 615,1115 615,1113 614,1112 613,1111 612,1110 611,1108 610,1107 609,1106 608,1106 607,1105 606,1104 605,1104 604,1103 603,1103 601,1102 600,1102 "/>
<circle cx="599" cy="1094" r="5" opacity="1" fill="#FF0000" stroke="none" stroke-width="1"/>
<polyline fill="none" opacity="1" stroke="#FF0000" stroke-width="5" points="599,1102 599,1094 "/>
<polyline fill="none" opacity="1" stroke="#FF0000" stroke-width="7" points="599,1094 598,1094 597,1094 597,1094 596,1094 595,1094 594,1095 594,1095 593,1095 592,1095 592,1096 591,1096 590,1096 590,1097 589,1097 589,1097 588,1098 588,1098 588,1099 587,1099 587,1100 587,1100 587,1101 587,1101 586,1102 586,1102 586,1103 587,1103 587,1104 587,1104 587,1105 587,1105 588,1106 588,1106 588,1107 589,1107 589,1107 590,1108 590,1108 591,1109 592,1109 592,1109 593,1109 594,1110 594,1110 595,1110 596,1110 597,1110 597,1110 598,1110 599,1110 600,1110 601,1110 601,1110 602,1110 603,1110 604,1110 604,1110 605,1109 606,1109 606,1109 607,1109 608,1108 608,1108 609,1107 609,1107 610,1107 610,1106 610,1106 611,1105 611,1105 611,1104 611,1104 611,1103 612,1103 612,1102 612,1102 611,1101 611,1101 611,1100 611,1100 611,1099 610,1099 610,1098 610,1098 609,1097 609,1097 608,1097 608,1096 607,1096 606,1096 606,1095 605,1095 604,1095 604,1095 603,1094 602,1094 601,1094 601,1094 600,1094 "/>
<polyline fill="none" opacity="1" stroke="#000000" stroke-width="10" points="599,1094 587,1094 575,1094 563,1094 551,1095 539,1095 528,1096 516,1096 505,1097 494,1097 483,1098 472,1098 462,1099 452,1099 443,1099 433,1100 424,1100 416,1099 408,1099 400,1099 392,1098 385,1097 378,1096 372,1094 366,1092 360,1090 355,1088 350,1085 345,1081 341,1077 336,1073 332,1069 329,1064 325,1058 322,1053 319,1046 317,1040 314,1033 312,1025 309,1017 307,1009 305,1001 303,992 302,983 300,973 299,963 297,953 296,943 295,933 294,922 293,912 292,901 291,890 291,879 290,869 290,858 290,847 290,836 290,825 291,815 292,804 292,794 294,784 295,774 297,764 299,754 301,745 303,736 306,727 309,718 313,710 316,701 320,693 325,685 329,678 334,670 339,663 345,656 351,649 357,642 363,635 369,628 376,622 383,615 390,609 397,602 404,596 411,589 418,583 425,576 432,569 439,563 446,556 453,549 459,542 465,534 471,527 477,520 482,512 487,504 492,496 496,488 500,480 503,471 506,463 508,454 510,445 511,436 512,427 513,417 512,408 512,398 510,389 508,379 506,369 503,360 500,350 496,340 492,331 488,321 483,312 478,302 472,293 467,284 461,275 454,266 448,257 442,248 435,240 429,232 422,224 416,216 409,209 403,202 397,195 391,188 386,182 380,176 375,170 371,165 366,159 363,154 359,150 356,145 354,141 352,137 351,134 350,130 350,127 350,124 351,122 352,119 355,117 357,115 361,113 364,111 369,110 374,109 380,107 386,106 392,105 400,105 407,104 415,103 424,103 433,102 443,102 453,102 463,101 474,101 485,101 496,101 507,101 519,101 531,101 543,100 555,100 568,100 580,100 593,100 605,100 618,100 630,100 643,100 655,100 667,101 679,101 691,101 702,101 713,101 724,101 735,101 745,102 755,102 765,102 774,103 783,103 791,104 798,105 806,105 812,106 818,107 824,109 829,110 834,111 837,113 841,115 843,117 846,119 847,122 848,124 848,127 848,130 847,134 846,137 844,141 842,145 839,150 835,154 832,159 827,165 823,170 818,176 812,182 807,188 801,195 795,202 789,209 782,216 776,224 769,232 763,240 756,248 750,257 744,266 737,275 731,284 726,293 720,302 715,312 710,321 706,331 702,340 698,350 695,360 692,369 690,379 688,389 686,398 686,408 685,417 686,427 687,436 688,445 690,454 692,463 695,471 698,480 702,488 706,496 711,504 716,512 721,520 727,527 733,534 739,542 745,549 752,556 759,563 766,569 773,576 780,583 787,589 794,596 801,602 808,609 815,615 822,622 829,628 835,635 841,642 847,649 853,656 859,663 864,670 869,678 873,685 878,693 882,701 885,710 889,718 892,727 895,736 897,745 899,754 901,764 903,774 904,784 906,794 906,804 907,815 908,825 908,836 908,847 908,858 908,869 907,879 907,890 906,901 905,912 904,922 903,933 902,943 901,953 899,963 898,973 896,983 895,992 893,1001 891,1009 889,1017 886,1025 884,1033 881,1040 879,1046 876,1053 873,1058 869,1064 866,1069 862,1073 857,1077 853,1081 848,1085 843,1088 838,1090 832,1092 826,1094 820,1096 813,1097 806,1098 798,1099 790,1099 782,1099 774,1100 765,1100 755,1099 746,1099 736,1099 726,1098 715,1098 704,1097 693,1097 682,1096 670,1096 659,1095 647,1095 635,1094 623,1094 611,1094 599,1094 "/>
</svg>
