<svg width="1200" height="1200" viewBox="0 0 1200 1200" xmlns="http://www.w3.org/2000/svg">
<rect x="0" y="0" width="1200" height="1200" opacity="1" fill="#FFFFFF" stroke="none"/>
<circle cx="599" cy="1086" r="3" opacity="1" fill="#000000" stroke="none" stroke-width="1"/>
<polyline fill="none" opacity="1" stroke="#FF0000" stroke-width="10" points="560,595 820,595 "/>
<polyline fill="none" opacity="1" stroke="#0000FF" stroke-width="10" points="560,595 560,334 "/>
<circle cx="599" cy="1100" r="5" opacity="1" fill="#FF0000" stroke="none" stroke-width="1"/>
<polyline fill="none" opacity="1" stroke="#FF0000" stroke-width="5" points="599,579 599,1100 "/>
<polyline fill="none" opacity="1" stroke="#FF0000" stroke-width="7" points="599,1100 583,1099 566,1096 550,1091 534,1084 518,1075 502,1063 487,1050 473,1036 458,1019 445,1001 432,981 419,959 408,936 397,911 387,885 377,858 369,830 361,801 355,771 349,740 345,709 341,677 339,645 337,612 336,579 337,547 339,514 341,482 345,450 349,418 355,388 361,358 369,328 377,300 387,273 397,247 408,223 419,200 432,178 445,158 458,140 473,123 487,108 502,95 518,84 534,75 550,68 566,63 583,60 599,59 615,60 632,63 648,68 664,75 680,84 696,95 711,108 725,123 740,140 753,158 766,178 779,200 790,223 801,247 811,273 821,300 829,328 837,358 843,388 849,418 853,450 857,482 859,514 861,547 862,579 861,612 859,645 857,677 853,709 849,740 843,771 837,801 829,830 821,858 811,885 801,911 790,936 779,959 766,981 753,1001 740,1019 725,1036 711,1050 696,1063 680,1075 664,1084 648,1091 632,1096 615,1099 "/>
<circle cx="599" cy="1121" r="5" opacity="1" fill="#FF0000" stroke="none" stroke-width="1"/>
<polyline fill="none" opacity="1" stroke="#FF0000" stroke-width="5" points="599,1100 599,1121 "/>
<polyline fill="none" opacity="1" stroke="#FF0000" stroke-width="7" points="599,1121 595,1121 592,1121 588,1121 584,1121 581,1120 577,1120 574,1119 570,1119 567,1118 564,1117 561,1116 558,1116 556,1115 553,1114 551,1113 549,1111 547,1110 545,1109 544,1108 542,1107 541,1105 540,1104 540,1103 540,1101 539,1100 540,1099 540,1097 540,1096 541,1095 542,1093 544,1092 545,1091 547,1090 549,1089 551,1088 553,1086 556,1085 558,1085 561,1084 564,1083 567,1082 570,1081 574,1081 577,1080 581,1080 584,1079 588,1079 592,1079 595,1079 599,1079 603,1079 606,1079 610,1079 614,1079 617,1080 621,1080 624,1081 628,1081 631,1082 634,1083 637,1084 640,1085 642,1085 645,1086 647,1088 649,1089 651,1090 653,1091 654,1092 656,1093 657,1095 658,1096 658,1097 659,1099 659,1100 659,1101 658,1103 658,1104 657,1105 656,1107 654,1108 653,1109 651,1110 649,1111 647,1113 645,1114 642,1115 640,1116 637,1116 634,1117 631,1118 628,1119 624,1119 621,1120 617,1120 614,1121 610,1121 606,1121 603,1121 "/>
<circle cx="599" cy="1123" r="5" opacity="1" fill="#FF0000" stroke="none" stroke-width="1"/>
<polyline fill="none" opacity="1" stroke="#FF0000" stroke-width="5" points="599,1121 599,1123 "/>
<polyline fill="none" opacity="1" stroke="#FF0000" stroke-width="7" points="599,1123 592,1123 585,1123 578,1123 571,1123 564,1123 557,1123 551,1123 544,1123 538,1123 532,1123 526,1123 521,1123 516,1123 511,1123 507,1122 503,1122 499,1122 496,1122 493,1122 491,1122 489,1122 487,1122 486,1122 485,1121 485,1121 485,1121 486,1121 487,1121 489,1121 491,1121 493,1121 496,1121 499,1120 503,1120 507,1120 511,1120 516,1120 521,1120 526,1120 532,1120 538,1120 544,1120 551,1120 557,1120 564,1120 571,1120 578,1120 585,1120 592,1120 599,1119 606,1120 613,1120 620,1120 627,1120 634,1120 641,1120 647,1120 654,1120 660,1120 666,1120 672,1120 677,1120 682,1120 687,1120 691,1120 695,1120 699,1120 702,1121 705,1121 707,1121 709,1121 711,1121 712,1121 713,1121 713,1121 713,1121 712,1122 711,1122 709,1122 707,1122 705,1122 702,1122 699,1122 695,1122 691,1122 687,1123 682,1123 677,1123 672,1123 666,1123 660,1123 654,1123 647,1123 641,1123 634,1123 627,1123 620,1123 613,1123 606,1123 "/>
<circle cx="599" cy="1126" r="5" opacity="1" fill="#FF0000" stroke="none" stroke-width="1"/>
<polyline fill="none" opacity="1" stroke="#FF0000" stroke-width="5" points="599,1123 599,1126 "/>
<polyline fill="none" opacity="1" stroke="#FF0000" stroke-width="7" points="599,1126 602,1126 605,1126 609,1126 612,1126 615,1126 618,1126 621,1126 624,1126 627,1126 629,1126 632,1126 634,1125 637,1125 639,1125 641,1125 643,1125 644,1125 646,1125 647,1124 648,1124 649,1124 650,1124 650,1124 651,1123 651,1123 651,1123 650,1123 650,1123 649,1122 648,1122 647,1122 646,1122 644,1122 643,1121 641,1121 639,1121 637,1121 634,1121 632,1121 629,1121 627,1120 624,1120 621,1120 618,1120 615,1120 612,1120 609,1120 605,1120 602,1120 599,1120 596,1120 593,1120 589,1120 586,1120 583,1120 580,1120 577,1120 574,1120 571,1120 569,1121 566,1121 564,1121 561,1121 559,1121 557,1121 555,1121 554,1122 552,1122 551,1122 550,1122 549,1122 548,1123 548,1123 547,1123 547,1123 547,1123 548,1124 548,1124 549,1124 550,1124 551,1124 552,1125 554,1125 555,1125 557,1125 559,1125 561,1125 564,1125 566,1126 569,1126 571,1126 574,1126 577,1126 580,1126 583,1126 586,1126 589,1126 593,1126 596,1126 "/>
<circle cx="599" cy="1099" r="5" opacity="1" fill="#FF0000" stroke="none" stroke-width="1"/>
<polyline fill="none" opacity="1" stroke="#FF0000" stroke-width="5" points="599,1126 599,1099 "/>
<polyline fill="none" opacity="1" stroke="#FF0000" stroke-width="7" points="599,1099 598,1099 597,1100 595,1100 594,1100 593,1101 592,1101 591,1102 590,1103 589,1104 588,1105 587,1106 586,1107 585,1108 584,1109 583,1111 583,1112 582,1113 581,1115 581,1116 580,1118 580,1120 580,1121 580,1123 580,1125 580,1126 580,1128 580,1130 580,1131 580,1133 580,1135 581,1136 581,1138 582,1139 583,1141 583,1142 584,1144 585,1145 586,1146 587,1147 588,1148 589,1149 590,1150 591,1151 592,1151 593,1152 594,1152 595,1153 597,1153 598,1153 599,1153 600,1153 601,1153 603,1153 604,1152 605,1152 606,1151 607,1151 608,1150 609,1149 610,1148 611,1147 612,1146 613,1145 614,1144 615,1142 615,1141 616,1139 617,1138 617,1136 618,1135 618,1133 618,1131 618,1130 618,1128 618,1126 618,1125 618,1123 618,1121 618,1120 618,1118 617,1116 617,1115 616,1113 615,1112 615,1111 614,1109 613,1108 612,1107 611,1106 610,1105 609,1104 608,1103 607,1102 606,1101 605,1101 604,1100 603,1100 601,1100 600,1099 "/>
<circle cx="599" cy="1091" r="5" opacity="1" fill="#FF0000" stroke="none" stroke-width="1"/>
<polyline fill="none" opacity="1" stroke="#FF0000" stroke-width="5" points="599,1099 599,1091 "/>
<polyline fill="none" opacity="1" stroke="#FF0000" stroke-width="7" points="599,1091 598,1091 597,1091 597,1091 596,1091 595,1092 594,1092 594,1092 593,1092 592,1092 592,1093 591,1093 590,1093 590,1094 589,1094 589,1095 588,1095 588,1095 588,1096 587,1096 587,1097 587,1097 587,1098 587,1098 586,1099 586,1099 586,1100 587,1100 587,1101 587,1101 587,1102 587,1102 588,1103 588,1103 588,1104 589,1104 589,1105 590,1105 590,1105 591,1106 592,1106 592,1106 593,1107 594,1107 594,1107 595,1107 596,1107 597,1107 597,1108 598,1108 599,1108 600,1108 601,1108 601,1107 602,1107 603,1107 604,1107 604,1107 605,1107 606,1106 606,1106 607,1106 608,1105 608,1105 609,1105 609,1104 610,1104 610,1103 610,1103 611,1102 611,1102 611,1101 611,1101 611,1100 612,1100 612,1099 612,1099 611,1098 611,1098 611,1097 611,1097 611,1096 610,1096 610,1095 610,1095 609,1095 609,1094 608,1094 608,1093 607,1093 606,1093 606,1092 605,1092 604,1092 604,1092 603,1092 602,1091 601,1091 601,1091 600,1091 "/>
<circle cx="599" cy="1086" r="5" opacity="1" fill="#FF0000" stroke="none" stroke-width="1"/>
<polyline fill="none" opacity="1" stroke="#FF0000" stroke-width="5" points="599,1091 599,1086 "/>
<polyline fill="none" opacity="1" stroke="#FF0000" stroke-width="7" points="599,1086 600,1086 600,1086 601,1086 602,1086 602,1086 603,1086 603,1086 604,1086 604,1087 605,1087 606,1087 606,1087 606,1087 607,1088 607,1088 608,1088 608,1089 608,1089 609,1089 609,1090 609,1090 609,1090 609,1091 609,1091 609,1091 609,1092 609,1092 609,1092 609,1093 609,1093 609,1093 608,1093 608,1094 608,1094 607,1094 607,1095 606,1095 606,1095 606,1095 605,1096 604,1096 604,1096 603,1096 603,1096 602,1096 602,1096 601,1097 600,1097 600,1097 599,1097 598,1097 598,1097 597,1097 596,1096 596,1096 595,1096 595,1096 594,1096 594,1096 593,1096 592,1095 592,1095 592,1095 591,1095 591,1094 590,1094 590,1094 590,1093 589,1093 589,1093 589,1093 589,1092 589,1092 589,1092 589,1091 589,1091 589,1091 589,1090 589,1090 589,1090 589,1089 590,1089 590,1089 590,1088 591,1088 591,1088 592,1087 592,1087 592,1087 593,1087 594,1087 594,1086 595,1086 595,1086 596,1086 596,1086 597,1086 598,1086 598,1086 "/>
<polyline fill="none" opacity="1" stroke="#000000" stroke-width="10" points="599,1086 588,1086 577,1086 567,1087 556,1087 545,1088 535,1089 524,1090 514,1091 503,1092 493,1093 483,1094 473,1095 463,1096 453,1097 444,1098 434,1099 425,1099 416,1100 408,1100 399,1099 391,1099 383,1098 376,1096 369,1095 362,1093 355,1090 349,1087 343,1084 337,1080 332,1075 327,1070 322,1065 318,1059 314,1053 311,1046 307,1039 305,1031 302,1023 300,1014 298,1005 296,996 295,987 294,977 293,967 292,957 292,947 292,936 292,926 292,915 292,904 292,893 293,883 294,872 295,861 295,851 296,840 297,830 299,819 300,809 301,800 303,790 304,780 306,771 308,762 309,753 311,744 314,736 316,727 318,719 321,711 324,704 327,696 330,688 333,681 337,674 341,666 345,659 350,652 355,645 360,638 365,631 371,624 376,617 382,610 389,603 395,596 402,589 408,582 415,575 422,568 429,560 436,553 444,545 451,537 457,530 464,522 471,514 477,506 483,498 489,490 494,481 499,473 504,464 508,456 512,447 515,439 517,430 519,421 520,412 521,403 521,394 520,385 518,376 516,367 514,358 511,349 507,340 502,331 497,322 492,314 486,305 480,296 473,287 466,278 459,270 451,261 444,253 436,245 428,237 420,229 413,221 405,213 398,206 391,198 384,191 378,184 372,178 366,171 361,165 357,159 353,154 350,149 347,143 345,139 344,134 343,130 343,126 344,123 345,119 347,116 350,114 353,111 357,109 361,107 366,106 372,104 378,103 385,102 392,101 400,101 408,101 416,100 425,100 434,101 444,101 453,101 463,101 473,102 484,102 494,103 505,103 516,103 527,104 538,104 549,105 560,105 571,105 582,105 593,105 605,105 616,105 627,105 638,105 649,105 660,104 671,104 682,103 693,103 704,103 714,102 725,102 735,101 745,101 754,101 764,101 773,100 782,100 790,101 798,101 806,101 813,102 820,103 826,104 832,106 837,107 841,109 845,111 848,114 851,116 853,119 854,123 855,126 855,130 854,134 853,139 851,143 848,149 845,154 841,159 837,165 832,171 826,178 820,184 814,191 807,198 800,206 793,213 785,221 778,229 770,237 762,245 754,253 747,261 739,270 732,278 725,287 718,296 712,305 706,314 701,322 696,331 691,340 687,349 684,358 682,367 680,376 678,385 678,394 677,403 678,412 679,421 681,430 683,439 686,447 690,456 694,464 699,473 704,481 709,490 715,498 721,506 727,514 734,522 741,530 747,537 754,545 762,553 769,560 776,568 783,575 790,582 796,589 803,596 809,603 816,610 822,617 828,624 833,631 838,638 843,645 848,652 853,659 857,666 861,674 865,681 868,688 871,696 874,704 877,711 880,719 882,727 884,736 887,744 889,753 890,762 892,771 894,780 895,790 897,800 898,809 899,819 901,830 902,840 903,851 903,861 904,872 905,883 906,893 906,904 906,915 906,926 906,936 906,947 906,957 905,967 904,977 903,987 902,996 900,1005 898,1014 896,1023 893,1031 891,1039 887,1046 884,1053 880,1059 876,1065 871,1070 866,1075 861,1080 855,1084 849,1087 843,1090 836,1093 829,1095 822,1096 815,1098 807,1099 799,1099 790,1100 782,1100 773,1099 764,1099 754,1098 745,1097 735,1096 725,1095 715,1094 705,1093 695,1092 684,1091 674,1090 663,1089 653,1088 642,1087 631,1087 621,1086 610,1086 599,1086 "/>
</svg>
