<svg width="1200" height="1200" viewBox="0 0 1200 1200" xmlns="http://www.w3.org/2000/svg">
<rect x="0" y="0" width="1200" height="1200" opacity="1" fill="#FFFFFF" stroke="none"/>
<circle cx="599" cy="1089" r="3" opacity="1" fill="#000000" stroke="none" stroke-width="1"/>
<polyline fill="none" opacity="1" stroke="#FF0000" stroke-width="10" points="584,586 683,586 "/>
<polyline fill="none" opacity="1" stroke="#0000FF" stroke-width="10" points="584,586 584,488 "/>
<circle cx="599" cy="1101" r="5" opacity="1" fill="#FF0000" stroke="none" stroke-width="1"/>
<polyline fill="none" opacity="1" stroke="#FF0000" stroke-width="5" points="599,581 599,1101 "/>
<polyline fill="none" opacity="1" stroke="#FF0000" stroke-width="7" points="599,1101 583,1100 566,1097 550,1092 534,1085 518,1076 502,1065 487,1052 473,1037 458,1020 445,1002 432,982 419,960 408,937 397,913 387,887 377,860 369,831 361,802 355,772 349,742 345,710 341,678 339,646 337,613 336,581 337,548 339,515 341,483 345,451 349,420 355,389 361,359 369,330 377,301 387,274 397,249 408,224 419,201 432,179 445,159 458,141 473,124 487,109 502,96 518,85 534,76 550,69 566,64 583,61 599,60 615,61 632,64 648,69 664,76 680,85 696,96 711,109 725,124 740,141 753,159 766,179 779,201 790,224 801,249 811,274 821,301 829,330 837,359 843,389 849,420 853,451 857,483 859,515 861,548 862,581 861,613 859,646 857,678 853,710 849,742 843,772 837,802 829,831 821,860 811,887 801,913 790,937 779,960 766,982 753,1002 740,1020 725,1037 711,1052 696,1065 680,1076 664,1085 648,1092 632,1097 615,1100 "/>
<circle cx="599" cy="1123" r="5" opacity="1" fill="#FF0000" stroke="none" stroke-width="1"/>
<polyline fill="none" opacity="1" stroke="#FF0000" stroke-width="5" points="599,1101 599,1123 "/>
<polyline fill="none" opacity="1" stroke="#FF0000" stroke-width="7" points="599,1123 595,1123 592,1123 588,1122 584,1122 581,1122 577,1121 574,1121 570,1120 567,1119 564,1119 561,1118 558,1117 556,1116 553,1115 551,1114 549,1113 547,1112 545,1110 544,1109 542,1108 541,1107 540,1105 540,1104 539,1103 539,1101 539,1100 540,1099 540,1097 541,1096 542,1095 544,1094 545,1092 547,1091 549,1090 551,1089 553,1088 556,1087 558,1086 561,1085 564,1084 567,1083 570,1083 574,1082 577,1082 581,1081 584,1081 588,1080 592,1080 595,1080 599,1080 603,1080 606,1080 610,1080 614,1081 617,1081 621,1082 624,1082 628,1083 631,1083 634,1084 637,1085 640,1086 642,1087 645,1088 647,1089 649,1090 651,1091 653,1092 654,1094 656,1095 657,1096 658,1097 658,1099 659,1100 659,1101 659,1103 658,1104 658,1105 657,1107 656,1108 654,1109 653,1110 651,1112 649,1113 647,1114 645,1115 642,1116 640,1117 637,1118 634,1119 631,1119 628,1120 624,1121 621,1121 617,1122 614,1122 610,1122 606,1123 603,1123 "/>
<circle cx="599" cy="1125" r="5" opacity="1" fill="#FF0000" stroke="none" stroke-width="1"/>
<polyline fill="none" opacity="1" stroke="#FF0000" stroke-width="5" points="599,1123 599,1125 "/>
<polyline fill="none" opacity="1" stroke="#FF0000" stroke-width="7" points="599,1125 592,1125 585,1125 578,1124 571,1124 564,1124 557,1124 551,1124 544,1124 538,1124 532,1124 526,1124 521,1124 516,1124 511,1124 507,1124 503,1124 499,1124 496,1123 493,1123 491,1123 489,1123 487,1123 486,1123 485,1123 485,1123 485,1123 486,1122 487,1122 489,1122 491,1122 493,1122 496,1122 499,1122 503,1122 507,1122 511,1122 516,1121 521,1121 526,1121 532,1121 538,1121 544,1121 551,1121 557,1121 564,1121 571,1121 578,1121 585,1121 592,1121 599,1121 606,1121 613,1121 620,1121 627,1121 634,1121 641,1121 647,1121 654,1121 660,1121 666,1121 672,1121 677,1121 682,1121 687,1122 691,1122 695,1122 699,1122 702,1122 705,1122 707,1122 709,1122 711,1122 712,1122 713,1123 713,1123 713,1123 712,1123 711,1123 709,1123 707,1123 705,1123 702,1123 699,1124 695,1124 691,1124 687,1124 682,1124 677,1124 672,1124 666,1124 660,1124 654,1124 647,1124 641,1124 634,1124 627,1124 620,1124 613,1125 606,1125 "/>
<circle cx="599" cy="1128" r="5" opacity="1" fill="#FF0000" stroke="none" stroke-width="1"/>
<polyline fill="none" opacity="1" stroke="#FF0000" stroke-width="5" points="599,1125 599,1128 "/>
<polyline fill="none" opacity="1" stroke="#FF0000" stroke-width="7" points="599,1128 602,1128 605,1128 609,1128 612,1128 615,1128 618,1127 621,1127 624,1127 627,1127 629,1127 632,1127 634,1127 637,1127 639,1127 641,1126 643,1126 644,1126 646,1126 647,1126 648,1126 649,1125 650,1125 650,1125 651,1125 651,1125 651,1124 650,1124 650,1124 649,1124 648,1124 647,1123 646,1123 644,1123 643,1123 641,1123 639,1122 637,1122 634,1122 632,1122 629,1122 627,1122 624,1122 621,1122 618,1122 615,1121 612,1121 609,1121 605,1121 602,1121 599,1121 596,1121 593,1121 589,1121 586,1121 583,1121 580,1122 577,1122 574,1122 571,1122 569,1122 566,1122 564,1122 561,1122 559,1122 557,1123 555,1123 554,1123 552,1123 551,1123 550,1124 549,1124 548,1124 548,1124 547,1124 547,1125 547,1125 548,1125 548,1125 549,1125 550,1126 551,1126 552,1126 554,1126 555,1126 557,1126 559,1127 561,1127 564,1127 566,1127 569,1127 571,1127 574,1127 577,1127 580,1127 583,1128 586,1128 589,1128 593,1128 596,1128 "/>
<circle cx="599" cy="1101" r="5" opacity="1" fill="#FF0000" stroke="none" stroke-width="1"/>
<polyline fill="none" opacity="1" stroke="#FF0000" stroke-width="5" points="599,1128 599,1101 "/>
<polyline fill="none" opacity="1" stroke="#FF0000" stroke-width="7" points="599,1101 598,1101 597,1101 595,1101 594,1102 593,1102 592,1103 591,1103 590,1104 589,1105 588,1106 587,1107 586,1108 585,1109 584,1111 583,1112 583,1113 582,1115 581,1116 581,1118 580,1119 580,1121 580,1123 580,1124 580,1126 580,1128 580,1129 580,1131 580,1133 580,1134 580,1136 581,1138 581,1139 582,1141 583,1142 583,1144 584,1145 585,1146 586,1147 587,1148 588,1150 589,1150 590,1151 591,1152 592,1153 593,1153 594,1154 595,1154 597,1154 598,1155 599,1155 600,1155 601,1154 603,1154 604,1154 605,1153 606,1153 607,1152 608,1151 609,1150 610,1150 611,1148 612,1147 613,1146 614,1145 615,1144 615,1142 616,1141 617,1139 617,1138 618,1136 618,1134 618,1133 618,1131 618,1129 618,1128 618,1126 618,1124 618,1123 618,1121 618,1119 617,1118 617,1116 616,1115 615,1113 615,1112 614,1111 613,1109 612,1108 611,1107 610,1106 609,1105 608,1104 607,1103 606,1103 605,1102 604,1102 603,1101 601,1101 600,1101 "/>
<circle cx="599" cy="1093" r="5" opacity="1" fill="#FF0000" stroke="none" stroke-width="1"/>
<polyline fill="none" opacity="1" stroke="#FF0000" stroke-width="5" points="599,1101 599,1093 "/>
<polyline fill="none" opacity="1" stroke="#FF0000" stroke-width="7" points="599,1093 598,1093 597,1093 597,1093 596,1093 595,1093 594,1093 594,1093 593,1094 592,1094 592,1094 591,1094 590,1095 590,1095 589,1096 589,1096 588,1096 588,1097 588,1097 587,1098 587,1098 587,1099 587,1099 587,1100 586,1100 586,1101 586,1101 587,1102 587,1102 587,1103 587,1103 587,1104 588,1104 588,1105 588,1105 589,1106 589,1106 590,1106 590,1107 591,1107 592,1107 592,1108 593,1108 594,1108 594,1108 595,1109 596,1109 597,1109 597,1109 598,1109 599,1109 600,1109 601,1109 601,1109 602,1109 603,1109 604,1108 604,1108 605,1108 606,1108 606,1107 607,1107 608,1107 608,1106 609,1106 609,1106 610,1105 610,1105 610,1104 611,1104 611,1103 611,1103 611,1102 611,1102 612,1101 612,1101 612,1100 611,1100 611,1099 611,1099 611,1098 611,1098 610,1097 610,1097 610,1096 609,1096 609,1096 608,1095 608,1095 607,1094 606,1094 606,1094 605,1094 604,1093 604,1093 603,1093 602,1093 601,1093 601,1093 600,1093 "/>
<circle cx="599" cy="1087" r="5" opacity="1" fill="#FF0000" stroke="none" stroke-width="1"/>
<polyline fill="none" opacity="1" stroke="#FF0000" stroke-width="5" points="599,1093 599,1087 "/>
<polyline fill="none" opacity="1" stroke="#FF0000" stroke-width="7" points="599,1087 600,1087 600,1087 601,1087 602,1087 602,1087 603,1088 603,1088 604,1088 604,1088 605,1088 606,1088 606,1089 606,1089 607,1089 607,1089 608,1090 608,1090 608,1090 609,1091 609,1091 609,1091 609,1092 609,1092 609,1092 609,1093 609,1093 609,1093 609,1094 609,1094 609,1094 609,1095 608,1095 608,1095 608,1095 607,1096 607,1096 606,1096 606,1096 606,1097 605,1097 604,1097 604,1097 603,1097 603,1098 602,1098 602,1098 601,1098 600,1098 600,1098 599,1098 598,1098 598,1098 597,1098 596,1098 596,1098 595,1098 595,1097 594,1097 594,1097 593,1097 592,1097 592,1096 592,1096 591,1096 591,1096 590,1095 590,1095 590,1095 589,1095 589,1094 589,1094 589,1094 589,1093 589,1093 589,1093 589,1092 589,1092 589,1092 589,1091 589,1091 589,1091 590,1090 590,1090 590,1090 591,1089 591,1089 592,1089 592,1089 592,1088 593,1088 594,1088 594,1088 595,1088 595,1088 596,1087 596,1087 597,1087 598,1087 598,1087 "/>
<circle cx="599" cy="1089" r="5" opacity="1" fill="#FF0000" stroke="none" stroke-width="1"/>
<polyline fill="none" opacity="1" stroke="#FF0000" stroke-width="5" points="599,1087 599,1089 "/>
<polyline fill="none" opacity="1" stroke="#FF0000" stroke-width="7" points="599,1089 599,1089 599,1089 599,1089 599,1089 599,1089 599,1089 598,1089 598,1089 598,1089 598,1088 598,1088 598,1088 598,1088 598,1088 598,1088 598,1088 598,1088 598,1088 598,1088 598,1088 598,1088 598,1087 598,1087 598,1087 598,1087 598,1087 598,1087 598,1087 598,1087 598,1087 598,1087 598,1086 598,1086 598,1086 598,1086 598,1086 598,1086 598,1086 598,1086 598,1086 598,1086 598,1086 598,1086 599,1086 599,1086 599,1086 599,1086 599,1086 599,1086 599,1086 599,1086 599,1086 599,1086 599,1086 599,1086 599,1086 600,1086 600,1086 600,1086 600,1086 600,1086 600,1086 600,1086 600,1086 600,1086 600,1086 600,1086 600,1086 600,1087 600,1087 600,1087 600,1087 600,1087 600,1087 600,1087 600,1087 600,1087 600,1087 600,1088 600,1088 600,1088 600,1088 600,1088 600,1088 600,1088 600,1088 600,1088 600,1088 600,1088 600,1088 600,1089 600,1089 600,1089 599,1089 599,1089 599,1089 599,1089 599,1089 599,1089 "/>
<polyline fill="none" opacity="1" stroke="#000000" stroke-width="10" points="599,1089 588,1089 577,1089 566,1089 555,1090 544,1090 534,1091 523,1092 512,1093 502,1094 492,1095 482,1095 472,1096 462,1097 452,1098 443,1099 433,1099 424,1099 416,1100 407,1099 399,1099 391,1098 383,1098 376,1096 369,1095 362,1092 355,1090 349,1087 343,1084 338,1080 333,1076 328,1071 323,1066 319,1060 315,1054 312,1047 309,1040 306,1033 303,1025 301,1017 299,1008 297,999 295,990 294,980 293,970 292,960 292,950 291,939 291,928 291,917 291,907 292,896 292,885 293,874 293,863 294,852 295,841 296,831 297,820 299,810 300,800 302,790 303,780 305,771 307,762 309,753 311,744 313,735 316,727 319,719 321,711 324,703 327,696 331,688 334,681 338,674 342,667 347,660 351,653 356,647 361,640 366,633 372,626 377,620 383,613 389,606 396,599 402,592 409,585 415,578 422,570 429,563 436,555 443,548 450,540 457,532 463,524 470,516 476,508 482,499 488,491 493,483 498,474 503,465 507,456 511,448 514,439 516,430 518,421 519,412 520,403 520,394 520,385 519,376 517,367 514,358 511,349 507,340 503,332 498,323 493,314 487,305 481,297 474,288 467,280 460,271 452,263 445,255 437,247 429,239 421,231 413,223 406,216 398,208 391,201 384,194 377,187 371,181 366,174 361,168 356,162 352,156 349,151 346,145 344,140 342,136 342,131 342,127 342,123 344,120 346,117 349,114 352,111 356,109 361,107 366,105 372,104 378,103 385,102 392,101 400,101 408,100 417,100 426,101 435,101 445,101 454,102 464,102 475,103 485,104 495,104 506,105 517,106 528,106 538,107 549,107 560,108 571,108 582,108 593,108 605,108 616,108 627,108 638,108 649,107 660,107 670,106 681,106 692,105 703,104 713,104 723,103 734,102 744,102 753,101 763,101 772,101 781,100 790,100 798,101 806,101 813,102 820,103 826,104 832,105 837,107 842,109 846,111 849,114 852,117 854,120 856,123 856,127 856,131 856,136 854,140 852,145 849,151 846,156 842,162 837,168 832,174 827,181 821,187 814,194 807,201 800,208 792,216 785,223 777,231 769,239 761,247 753,255 746,263 738,271 731,280 724,288 717,297 711,305 705,314 700,323 695,332 691,340 687,349 684,358 681,367 679,376 678,385 678,394 678,403 679,412 680,421 682,430 684,439 687,448 691,456 695,465 700,474 705,483 710,491 716,499 722,508 728,516 735,524 741,532 748,540 755,548 762,555 769,563 776,570 783,578 789,585 796,592 802,599 809,606 815,613 821,620 826,626 832,633 837,640 842,647 847,653 851,660 856,667 860,674 864,681 867,688 871,696 874,703 877,711 879,719 882,727 885,735 887,744 889,753 891,762 893,771 895,780 896,790 898,800 899,810 901,820 902,831 903,841 904,852 905,863 905,874 906,885 906,896 907,907 907,917 907,928 907,939 906,950 906,960 905,970 904,980 903,990 901,999 899,1008 897,1017 895,1025 892,1033 889,1040 886,1047 883,1054 879,1060 875,1066 870,1071 865,1076 860,1080 855,1084 849,1087 843,1090 836,1092 829,1095 822,1096 815,1098 807,1098 799,1099 791,1099 782,1100 774,1099 765,1099 755,1099 746,1098 736,1097 726,1096 716,1095 706,1095 696,1094 686,1093 675,1092 664,1091 654,1090 643,1090 632,1089 621,1089 610,1089 599,1089 "/>
</svg>
