<svg width="1200" height="1200" viewBox="0 0 1200 1200" xmlns="http://www.w3.org/2000/svg">
<rect x="0" y="0" width="1200" height="1200" opacity="1" fill="#FFFFFF" stroke="none"/>
<circle cx="884" cy="46" r="3" opacity="1" fill="#000000" stroke="none" stroke-width="1"/>
<polyline fill="none" opacity="1" stroke="#FF0000" stroke-width="10" points="532,684 685,691 "/>
<polyline fill="none" opacity="1" stroke="#0000FF" stroke-width="10" points="532,684 532,526 "/>
<polyline fill="none" opacity="1" stroke="#00FF00" stroke-width="10" points="532,684 485,706 "/>
<circle cx="648" cy="203" r="5" opacity="1" fill="#FF0000" stroke="none" stroke-width="1"/>
<polyline fill="none" opacity="1" stroke="#FF0000" stroke-width="5" points="532,684 648,203 "/>
<polyline fill="none" opacity="1" stroke="#FF0000" stroke-width="7" points="648,203 648,204 648,206 646,211 645,217 644,227 641,237 637,249 634,262 631,277 627,294 623,313 617,333 612,354 606,377 600,401 595,426 589,452 581,479 575,507 568,534 561,563 554,593 547,623 539,654 532,684 524,714 517,744 509,774 502,802 496,833 488,860 482,888 476,916 470,941 463,966 457,990 451,1013 446,1035 442,1054 438,1073 433,1090 429,1104 426,1119 423,1131 421,1140 419,1149 417,1156 415,1161 415,1163 415,1164 415,1163 415,1161 417,1156 419,1149 421,1140 423,1131 426,1119 429,1104 433,1090 438,1073 442,1054 446,1035 451,1013 457,990 463,966 470,941 476,916 482,888 488,860 496,833 502,802 509,774 517,744 524,714 532,684 539,654 547,623 554,593 561,563 568,534 575,507 581,479 589,452 595,426 600,401 606,377 612,354 617,333 623,313 627,294 631,277 634,262 637,249 641,237 644,227 645,217 646,211 648,206 648,204 "/>
<circle cx="893" cy="127" r="5" opacity="1" fill="#FF0000" stroke="none" stroke-width="1"/>
<polyline fill="none" opacity="1" stroke="#FF0000" stroke-width="5" points="648,203 893,127 "/>
<polyline fill="none" opacity="1" stroke="#FF0000" stroke-width="7" points="893,127 893,128 892,128 889,129 886,129 882,131 877,133 871,135 864,137 855,140 848,142 837,144 827,148 817,151 804,155 793,158 780,162 767,167 754,171 739,175 725,180 709,184 694,189 680,193 665,198 648,203 633,208 617,212 603,217 588,222 572,226 558,231 544,235 531,239 517,243 504,247 493,250 480,255 470,258 460,260 450,264 442,266 433,269 426,271 420,273 415,274 411,275 408,277 405,278 404,278 403,277 404,278 405,278 408,277 411,275 415,274 420,273 426,271 433,269 442,266 450,264 460,260 470,258 480,255 493,250 504,247 517,243 531,239 544,235 558,231 572,226 588,222 603,217 617,212 633,208 648,203 665,198 680,193 694,189 709,184 725,180 739,175 754,171 767,167 780,162 793,158 804,155 817,151 827,148 837,144 848,142 855,140 864,137 871,135 877,133 882,131 886,129 889,129 892,128 893,128 "/>
<circle cx="884" cy="46" r="5" opacity="1" fill="#FF0000" stroke="none" stroke-width="1"/>
<polyline fill="none" opacity="1" stroke="#FF0000" stroke-width="5" points="893,127 884,46 "/>
<polyline fill="none" opacity="1" stroke="#FF0000" stroke-width="7" points="884,46 884,47 884,47 883,48 884,49 883,50 883,52 885,54 885,56 884,59 885,62 886,65 885,68 887,72 887,76 888,79 888,85 889,88 889,92 890,98 891,103 891,108 892,113 893,117 894,122 893,127 894,133 895,138 896,142 897,147 897,152 898,158 899,163 899,167 900,171 900,176 901,179 902,183 901,187 902,190 903,193 904,196 903,199 903,201 904,203 904,205 904,206 905,207 904,208 905,208 905,208 905,208 904,208 905,207 904,206 904,205 904,203 903,201 903,199 904,196 903,193 902,190 901,187 902,183 901,179 900,176 900,171 899,167 899,163 898,158 897,152 897,147 896,142 895,138 894,133 893,127 894,122 893,117 892,113 891,108 891,103 890,98 889,92 889,88 888,85 888,79 887,76 887,72 885,68 886,65 885,62 884,59 885,56 885,54 883,52 883,50 884,49 883,48 884,47 884,47 "/>
<polyline fill="none" opacity="1" stroke="#000000" stroke-width="10" points="884,46 884,47 884,47 883,47 883,47 882,48 882,49 881,49 880,50 880,51 879,52 878,53 878,55 876,56 876,58 874,59 874,61 872,63 871,65 870,67 868,69 867,71 864,75 863,76 861,80 860,81 858,85 855,88 853,91 851,94 849,97 847,100 845,104 842,107 840,111 837,114 834,118 833,122 829,127 826,129 824,133 821,139 818,143 815,147 812,151 809,156 805,160 803,165 799,169 796,174 792,180 789,183 785,189 781,194 778,199 774,204 770,209 767,214 763,219 758,224 755,231 752,236 747,241 743,247 738,252 735,257 730,264 727,269 722,275 717,280 714,286 709,291 705,298 700,303 695,309 690,315 687,320 682,327 678,333 673,338 669,344 664,350 659,355 654,362 649,367 645,373 640,380 635,385 630,391 625,396 621,402 616,409 611,414 606,420 601,425 596,432 592,437 587,442 582,449 577,454 572,459 567,465 563,471 558,476 553,481 549,486 543,493 538,498 534,503 529,509 524,514 519,518 515,524 509,529 505,534 501,538 496,544 490,549 486,554 481,559 477,563 472,568 467,573 463,577 459,582 454,586 450,592 445,596 441,601 436,604 432,608 429,613 424,617 420,622 416,625 412,629 408,633 404,637 400,641 396,644 392,649 387,652 384,656 380,659 377,663 372,666 369,670 366,673 363,677 360,680 357,682 353,686 350,690 346,692 343,696 340,698 337,701 334,705 331,707 329,709 326,712 324,715 320,718 317,721 316,724 313,726 311,728 308,730 307,733 304,736 303,738 300,740 298,742 297,745 295,747 294,749 292,751 290,754 289,755 287,758 285,760 285,761 283,764 283,766 281,767 280,770 280,772 278,773 278,775 277,778 277,780 276,781 275,783 276,785 275,787 275,788 275,791 275,793 276,795 275,796 276,798 277,800 276,802 277,803 277,805 278,807 279,809 279,810 280,814 281,815 281,817 283,819 284,821 285,822 287,824 288,826 290,828 290,831 293,833 293,834 295,836 298,838 299,841 301,843 303,845 305,848 307,849 309,851 312,854 313,856 315,857 318,861 321,862 323,865 326,867 328,870 331,872 333,875 337,876 339,879 342,882 344,884 348,887 351,890 353,893 357,894 360,897 362,900 366,903 369,906 372,909 376,912 379,915 383,918 386,920 390,923 393,926 397,929 400,931 403,934 407,937 410,940 415,944 418,947 422,949 425,952 430,956 433,959 437,962 440,966 444,968 448,971 451,975 456,978 459,982 463,984 467,987 471,991 475,994 479,997 482,1000 485,1004 490,1007 494,1010 497,1013 502,1017 505,1021 509,1023 512,1027 516,1030 521,1034 524,1036 528,1040 531,1042 535,1046 538,1049 542,1053 545,1055 549,1059 553,1061 556,1065 560,1068 563,1072 567,1074 569,1076 573,1080 576,1083 580,1085 582,1089 586,1091 589,1094 592,1098 595,1100 599,1103 601,1105 604,1108 607,1110 610,1112 613,1116 615,1118 618,1121 620,1122 622,1125 626,1127 628,1130 630,1132 632,1134 634,1135 636,1138 640,1141 642,1142 643,1144 646,1145 646,1148 648,1149 650,1150 652,1153 654,1154 656,1155 656,1156 658,1158 660,1159 660,1160 662,1161 662,1162 664,1164 664,1165 666,1165 666,1166 668,1167 668,1167 668,1169 670,1168 670,1168 670,1170 670,1170 670,1170 670,1170 670,1170 670,1170 "/>
</svg>
