<svg width="1200" height="1200" viewBox="0 0 1200 1200" xmlns="http://www.w3.org/2000/svg">
<rect x="0" y="0" width="1200" height="1200" opacity="1" fill="#FFFFFF" stroke="none"/>
<circle cx="884" cy="46" r="3" opacity="1" fill="#000000" stroke="none" stroke-width="1"/>
<polyline fill="none" opacity="1" stroke="#FF0000" stroke-width="10" points="532,684 685,691 "/>
<polyline fill="none" opacity="1" stroke="#0000FF" stroke-width="10" points="532,684 532,526 "/>
<polyline fill="none" opacity="1" stroke="#00FF00" stroke-width="10" points="532,684 485,706 "/>
<circle cx="648" cy="203" r="5" opacity="1" fill="#FF0000" stroke="none" stroke-width="1"/>
<polyline fill="none" opacity="1" stroke="#FF0000" stroke-width="5" points="532,684 648,203 "/>
<polyline fill="none" opacity="1" stroke="#FF0000" stroke-width="7" points="648,203 648,204 648,206 646,211 645,217 644,227 641,237 637,249 634,262 631,277 627,294 623,313 617,333 612,354 606,377 600,401 595,426 589,452 581,479 575,507 568,534 561,563 554,593 547,623 539,654 532,684 524,714 517,744 509,774 502,802 496,833 488,860 482,888 476,916 470,941 463,966 457,990 451,1013 446,1035 442,1054 438,1073 433,1090 429,1104 426,1119 423,1131 421,1140 419,1149 417,1156 416,1161 415,1163 415,1164 415,1163 416,1161 417,1156 419,1149 421,1140 423,1131 426,1119 429,1104 433,1090 438,1073 442,1054 446,1035 451,1013 457,990 463,966 470,941 476,916 482,888 488,860 496,833 502,802 509,774 517,744 524,714 532,684 539,654 547,623 554,593 561,563 568,534 575,507 581,479 589,452 595,426 600,401 606,377 612,354 617,333 623,313 627,294 631,277 634,262 637,249 641,237 644,227 645,217 646,211 648,206 648,204 "/>
<circle cx="893" cy="128" r="5" opacity="1" fill="#FF0000" stroke="none" stroke-width="1"/>
<polyline fill="none" opacity="1" stroke="#FF0000" stroke-width="5" points="648,203 893,128 "/>
<polyline fill="none" opacity="1" stroke="#FF0000" stroke-width="7" points="893,128 893,128 892,128 889,129 886,129 882,131 877,133 871,135 864,137 855,140 848,142 837,144 827,148 817,151 804,155 793,158 780,162 767,167 754,171 739,175 725,180 709,184 694,189 680,193 665,198 648,203 633,208 617,212 603,217 588,222 572,226 558,231 544,235 531,239 517,243 504,247 493,250 480,255 470,258 460,260 450,264 442,266 433,269 426,271 420,273 415,274 411,275 408,277 405,278 404,278 403,277 404,278 405,278 408,277 411,275 415,274 420,273 426,271 433,269 442,266 450,264 460,260 470,258 480,255 493,250 504,247 517,243 531,239 544,235 558,231 572,226 588,222 603,217 617,212 633,208 648,203 665,198 680,193 694,189 709,184 725,180 739,175 754,171 767,167 780,162 793,158 804,155 817,151 827,148 837,144 848,142 855,140 864,137 871,135 877,133 882,131 886,129 889,129 892,128 893,128 "/>
<circle cx="884" cy="46" r="5" opacity="1" fill="#FF0000" stroke="none" stroke-width="1"/>
<polyline fill="none" opacity="1" stroke="#FF0000" stroke-width="5" points="893,128 884,46 "/>
<polyline fill="none" opacity="1" stroke="#FF0000" stroke-width="7" points="884,46 884,47 884,47 883,48 884,49 883,50 883,52 885,54 885,56 884,59 885,62 886,65 885,68 887,72 887,76 888,79 888,85 889,88 889,92 890,98 891,103 891,108 892,113 893,117 894,122 893,128 894,133 895,138 896,142 897,147 897,152 898,158 899,163 899,167 900,171 900,176 901,179 902,183 903,187 902,190 903,193 904,196 903,199 903,201 904,203 904,205 904,206 905,207 904,208 905,208 905,209 905,208 904,208 905,207 904,206 904,205 904,203 903,201 903,199 904,196 903,193 902,190 903,187 902,183 901,179 900,176 900,171 899,167 899,163 898,158 897,152 897,147 896,142 895,138 894,133 893,128 894,122 893,117 892,113 891,108 891,103 890,98 889,92 889,88 888,85 888,79 887,76 887,72 885,68 886,65 885,62 884,59 885,56 885,54 883,52 883,50 884,49 883,48 884,47 884,47 "/>
<polyline fill="none" opacity="1" stroke="#000000" stroke-width="10" points="884,46 884,47 883,47 882,49 880,50 879,52 878,55 876,58 874,61 871,65 868,69 864,75 861,80 858,85 853,91 849,97 845,104 840,111 834,118 829,127 824,133 818,143 812,151 805,160 799,169 792,180 785,189 778,199 770,209 763,219 755,231 747,241 738,252 730,264 722,275 714,286 705,298 695,309 687,320 678,333 669,344 659,355 649,367 640,380 630,391 621,402 611,414 601,425 592,437 582,449 572,459 563,471 553,481 543,493 534,503 524,514 515,524 505,534 496,544 486,554 477,563 467,573 459,582 450,592 441,601 432,608 424,617 416,625 408,633 400,641 392,649 384,656 377,663 369,670 363,677 357,682 350,690 343,696 337,701 331,707 326,712 320,718 316,724 311,728 307,733 303,738 298,742 295,747 292,751 289,755 285,760 283,764 281,767 280,772 278,775 277,780 275,783 275,787 276,791 276,795 276,798 276,802 277,805 279,809 280,814 281,817 284,821 287,824 290,828 293,833 295,836 299,841 303,845 307,849 310,854 315,857 321,862 326,867 331,872 336,876 342,882 348,887 353,893 360,897 366,903 372,909 379,915 386,920 393,926 400,931 407,937 415,944 422,949 430,956 437,962 444,968 451,975 459,982 467,988 475,994 482,1000 490,1007 497,1013 505,1021 512,1027 521,1034 528,1040 535,1046 542,1053 549,1059 556,1065 563,1072 569,1076 576,1083 582,1089 589,1094 595,1100 601,1105 607,1110 613,1116 618,1121 622,1125 628,1130 632,1134 636,1138 642,1142 646,1145 648,1149 652,1153 656,1155 658,1158 660,1160 662,1162 664,1165 666,1166 668,1167 670,1168 670,1170 670,1170 670,1170 670,1170 670,1170 670,1170 670,1168 668,1167 666,1166 664,1165 662,1162 660,1160 658,1158 656,1155 652,1153 648,1149 646,1145 642,1142 636,1138 632,1134 628,1130 622,1125 618,1121 613,1116 607,1110 601,1105 595,1100 589,1094 582,1089 576,1083 569,1076 563,1072 556,1065 549,1059 542,1053 535,1046 528,1040 521,1034 512,1027 505,1021 497,1013 490,1007 482,1000 475,994 467,988 459,982 451,975 444,968 437,962 430,956 422,949 415,944 407,937 400,931 393,926 386,920 379,915 372,909 366,903 360,897 353,893 348,887 342,882 336,876 331,872 326,867 321,862 315,857 310,854 307,849 303,845 299,841 295,836 293,833 290,828 287,824 284,821 281,817 280,814 279,809 277,805 276,802 276,798 276,795 276,791 275,787 275,783 277,780 278,775 280,772 281,767 283,764 285,760 289,755 292,751 295,747 298,742 303,738 307,733 311,728 316,724 320,718 326,712 331,707 337,701 343,696 350,690 357,682 363,677 369,670 377,663 384,656 392,649 400,641 408,633 416,625 424,617 432,608 441,601 450,592 459,582 467,573 477,563 486,554 496,544 505,534 515,524 524,514 534,503 543,493 553,481 563,471 572,459 582,449 592,437 601,425 611,414 621,402 630,391 640,380 649,367 659,355 669,344 678,333 687,320 695,309 705,298 714,286 722,275 730,264 738,252 747,241 755,231 763,219 770,209 778,199 785,189 792,180 799,169 805,160 812,151 818,143 824,133 829,127 834,118 840,111 845,104 849,97 853,91 858,85 861,80 864,75 868,69 871,65 874,61 876,58 878,55 879,52 880,50 882,49 883,47 884,47 884,46 "/>
</svg>
